<?xml version="1.0" encoding="UTF-8" standalone="no"?>
<svg width="467px" height="224px" viewBox="0 0 467 224" version="1.1" xmlns="http://www.w3.org/2000/svg" xmlns:xlink="http://www.w3.org/1999/xlink">
    <!-- Generator: sketchtool 3.8 (29681) - http://www.bohemiancoding.com/sketch -->
    <title>7BCC47C0-7C02-4BDC-91EB-BCFDADF21177</title>
    <desc>Created with sketchtool.</desc>
    <defs>
        <polygon id="path-1" points="34.3229632 9.39367834 34.3229632 0.746226115 0.111058896 0.746226115 0.111058896 9.39367834 34.3229632 9.39367834"></polygon>
        <polygon id="path-3" points="75.2425816 0.556050955 0.703078528 0.556050955 0.703078528 9.20479299 75.2425816 9.20479299 75.2425816 0.556050955"></polygon>
    </defs>
    <g id="Desktop" stroke="none" stroke-width="1" fill="none" fill-rule="evenodd">
        <g id="API" transform="translate(-664.000000, -1189.000000)">
            <g id="use-cases" transform="translate(345.000000, 1000.000000)">
                <g id="Group-5" transform="translate(0.000000, 188.000000)">
                    <g id="api-case1" transform="translate(319.000000, 0.000000)">
                        <path d="M313.348691,211.167946 L178.540403,211.167946 C176.17532,211.167946 174.242857,209.233232 174.242857,206.868583 L174.242857,36.4088694 C174.242857,34.0442197 176.17532,32.1095064 178.540403,32.1095064 L313.348691,32.1095064 C315.710909,32.1095064 317.646237,34.0442197 317.646237,36.4088694 L317.646237,206.868583 C317.646237,209.233232 315.710909,211.167946 313.348691,211.167946" id="Fill-1" fill="#D1D2D4"></path>
                        <g id="Group-5" transform="translate(432.187117, 149.921656)">
                            <mask id="mask-2" fill="white">
                                <use xlink:href="#path-1"></use>
                            </mask>
                            <g id="Clip-4"></g>
                            <path d="M30.4789515,9.39367834 L3.95593006,9.39367834 C1.84153742,9.39367834 0.111058896,7.66390127 0.111058896,5.54718153 L0.111058896,4.59128981 C0.111058896,2.47743631 1.84153742,0.746226115 3.95593006,0.746226115 L30.4789515,0.746226115 C32.5933442,0.746226115 34.3238227,2.47743631 34.3238227,4.59128981 L34.3238227,5.54718153 C34.3238227,7.66390127 32.5933442,9.39367834 30.4789515,9.39367834" id="Fill-3" fill="#D19595" mask="url(#mask-2)"></path>
                        </g>
                        <g id="Group-8" transform="translate(0.000000, 38.138217)" fill="#3F8EBF">
                            <path d="M46.4434365,6.11742038 L2.52824632,6.11742038 C1.13727393,6.11742038 -0.000143251534,4.97952229 -0.000143251534,3.5893949 L-0.000143251534,2.9616879 C-0.000143251534,1.57012739 1.13727393,0.43366242 2.52824632,0.43366242 L46.4434365,0.43366242 C47.8329764,0.43366242 48.9703936,1.57012739 48.9703936,2.9616879 L48.9703936,3.5893949 C48.9703936,4.97952229 47.8329764,6.11742038 46.4434365,6.11742038" id="Fill-6"></path>
                        </g>
                        <path d="M190.738558,200.756895 L106.396352,200.756895 C104.05992,200.756895 102.147512,198.843678 102.147512,196.506258 L102.147512,195.451481 C102.147512,193.114061 104.05992,191.200844 106.396352,191.200844 L190.738558,191.200844 C193.07499,191.200844 194.987398,193.114061 194.987398,195.451481 L194.987398,196.506258 C194.987398,198.843678 193.07499,200.756895 190.738558,200.756895" id="Fill-9" fill="#D19595"></path>
                        <path d="M335.037976,79.5587102 L268.042099,79.5587102 C265.486492,79.5587102 263.393587,77.4663535 263.393587,74.9082325 L263.393587,73.7517038 C263.393587,71.1950159 265.486492,69.1012261 268.042099,69.1012261 L335.037976,69.1012261 C337.595016,69.1012261 339.687921,71.1950159 339.687921,73.7517038 L339.687921,74.9082325 C339.687921,77.4663535 337.595016,79.5587102 335.037976,79.5587102" id="Fill-11" fill="#3F8EBF"></path>
                        <path d="M146.529272,98.1571815 C146.565085,98.1543153 146.603763,98.151449 146.639576,98.1500159 C146.676821,98.3205573 146.731257,98.4896656 146.744149,98.6645064 C147.179634,104.075971 147.619416,109.486003 148.037711,114.900334 C148.143717,116.274697 148.19099,117.654793 148.249723,119.034889 C148.615014,127.477404 148.94879,135.922787 149.345597,144.361003 C149.689401,151.681385 149.844113,159.014666 150.636294,166.300653 C150.882686,168.569283 151.013045,170.857978 151.328198,173.11371 C151.560266,174.791895 151.9671,176.44285 152.378232,178.080908 C152.502861,178.575334 152.823744,179.107022 153.187603,179.405111 C154.839294,180.746513 156.549717,180.227723 157.334735,178.095239 C157.81033,176.801131 158.258708,175.436799 158.420582,174.056704 C158.927692,169.730111 159.383232,165.390621 159.696953,161.041099 C160.204063,154.044602 160.563625,147.033774 161.02203,140.034411 C161.510517,132.593646 162.033386,125.157182 162.556254,117.719283 C162.632177,116.647309 162.788321,115.581067 162.90722,114.513392 C163.210913,115.897787 163.483091,117.269283 163.60772,118.657978 C163.930036,122.265143 164.195051,125.880908 164.471527,129.493806 C165.001557,136.359889 165.196379,143.264666 166.232088,150.07199 C166.525754,151.996672 166.813689,153.928519 167.216226,155.825971 C167.519919,157.25336 167.913861,158.664984 168.926649,159.729793 C170.254591,161.127086 172.169864,161.12422 173.514996,159.732659 C174.294284,158.927245 174.835775,157.961322 175.076438,156.84492 C175.635119,154.23664 176.19953,151.619761 176.569119,148.96992 C176.953033,146.206863 177.061904,143.393646 177.382787,140.617691 C177.716563,137.699857 178.140588,134.79492 178.564613,131.89285 C178.674916,131.137596 178.875468,130.378041 179.495748,129.787596 C179.624674,130.098583 179.789413,130.372309 179.855309,130.673264 C180.118892,131.891417 180.39107,133.108137 180.591622,134.340621 C181.08011,137.345876 181.09157,140.439984 181.893778,143.387914 C182.188876,144.465621 182.430971,145.569124 182.796263,146.615303 C183.155824,147.645717 183.714505,148.515621 184.482333,149.272309 C186.192757,150.963392 189.711014,150.759889 191.279619,148.356545 C191.934278,147.35336 192.57891,146.337277 192.836763,145.090462 C193.169106,143.489666 193.49572,141.887436 193.786521,140.276608 C194.118864,138.435048 194.180462,136.524697 194.941128,134.796354 C195.330772,133.907818 195.809232,133.814666 196.344993,134.601449 C196.488244,134.809252 196.621468,135.039984 196.705987,135.285048 C197.078441,136.345557 197.446597,137.408933 197.784671,138.482341 C198.066876,139.372309 198.283186,140.288073 198.571122,141.176608 C198.980821,142.436322 199.495094,143.653041 200.456312,144.485685 C201.032183,144.987277 201.665355,145.53043 202.3458,145.725334 C204.103496,146.234092 205.748024,145.829952 207.25503,144.590303 C208.20622,143.807818 208.845122,142.771672 209.463968,141.6825 C209.940996,140.842691 210.433781,140.01578 210.915106,139.178838 C211.240287,138.614188 211.681502,138.442213 212.263103,138.525334 C213.029499,138.634252 213.648346,139.062755 214.24857,139.56578 C215.464775,140.581863 216.815637,141.299857 218.324076,141.345717 C221.618861,141.446035 224.915079,141.450334 228.211297,141.456067 C229.01064,141.4575 229.692517,140.743806 229.931748,139.835207 C230.150922,139.002564 229.917422,138.028041 229.242708,137.542213 C228.840171,137.252723 228.31587,137.056385 227.84314,137.04922 C225.139984,137.001927 222.436827,137.023424 219.735103,137.02629 C218.455867,137.027723 217.294097,136.675175 216.252659,135.76801 C215.716898,135.302245 215.100916,134.923901 214.477772,134.628678 C212.522389,133.705748 209.749039,133.689984 208.176137,135.802404 C207.577346,136.607818 207.06164,137.497787 206.535907,138.370557 C206.086097,139.114347 205.786702,140.028678 205.223723,140.62199 C203.983165,141.931863 203.215337,141.825812 202.681008,140.214984 C202.256984,138.93664 201.854447,137.649697 201.471965,136.352723 C200.99637,134.741895 200.515045,133.17836 199.576748,131.778201 C197.671502,128.933455 192.922714,128.406067 191.228048,132.989188 C190.845567,134.023901 190.564794,135.124538 190.342754,136.222309 C189.837076,138.718806 189.421646,141.239666 188.914536,143.734729 C188.79134,144.338073 188.513432,144.931385 188.198278,145.44301 C187.802904,146.086481 187.15111,146.203997 186.625376,145.283933 C186.376119,144.845398 186.201352,144.31371 186.121131,143.797787 C185.732919,141.34715 185.34041,138.896513 185.046744,136.428678 C184.750214,133.942213 184.413573,131.471513 183.624257,129.116895 C183.154392,127.715303 182.551303,126.442691 181.297852,125.700334 C179.779386,124.800334 178.024554,125.025334 176.720965,126.285048 C175.95457,127.025971 175.473244,127.958933 175.209662,128.996513 C174.678198,131.080271 174.16679,133.181226 173.820122,135.31371 C173.480616,137.394602 173.371744,139.52422 173.139677,141.629475 C172.712787,145.471672 172.283033,149.311003 171.824628,153.147468 C171.738677,153.87836 171.526665,154.587755 171.371953,155.307182 C171.317517,155.304315 171.263082,155.300016 171.207214,155.295717 C171.13129,155.032022 171.022419,154.774061 170.983741,154.501768 C170.581205,151.595398 170.102744,148.697627 169.814809,145.775494 C169.349241,141.05336 168.991113,136.315462 168.625821,131.58043 C168.400916,128.665462 168.304938,125.736162 168.042787,122.825494 C167.710444,119.139506 167.289284,115.463551 166.862395,111.789029 C166.66614,110.080748 166.128947,108.488551 165.226462,107.09699 C164.230864,105.562118 162.387217,105.417373 161.125171,106.657022 C160.398886,107.373583 160.113815,108.330908 159.838772,109.301131 C158.889014,112.651768 158.651217,116.161481 158.2716,119.616736 C157.771652,124.171194 157.54818,128.768646 157.255947,133.353201 C156.988067,137.566576 156.797542,141.787118 156.546852,146.00336 C156.257484,150.848742 155.946628,155.691258 155.631475,160.535207 C155.496818,162.568806 155.330646,164.600971 155.165907,166.633137 C155.105741,167.391258 155.009763,168.143646 154.929542,168.897468 C154.809211,168.778519 154.781993,168.663869 154.773398,168.547787 C154.592901,166.104315 154.383754,163.662277 154.243367,161.214506 C153.816478,153.776608 153.388156,146.335844 153.011404,138.893646 C152.561594,130.002564 152.19487,121.107182 151.7336,112.217532 C151.428475,106.323105 151.207867,100.411481 150.199376,94.6001752 C149.915738,92.9735828 149.510337,91.3670541 149.050499,89.7934873 C148.89149,89.2560669 148.473195,88.677086 148.037711,88.4148248 C146.724094,87.6251752 144.957803,87.9476274 144.171352,89.7820223 C144.003748,90.1703981 143.808925,90.5559076 143.722975,90.9700796 C143.278895,93.1226274 142.678671,95.2622771 142.482416,97.4477866 C141.975306,103.042691 141.625772,108.656226 141.266211,114.266895 C140.837889,120.9825 140.501248,127.703838 140.057168,134.41801 C139.800748,138.320398 139.442619,142.215621 139.070165,146.106545 C138.918318,147.68871 138.610327,149.247946 138.373962,150.818646 L138.180573,150.827245 C137.90553,149.801131 137.537373,148.79508 137.372634,147.747468 C136.889876,144.664825 136.484475,141.569283 136.059017,138.476608 C135.718079,135.998742 135.335597,133.538073 134.345729,131.262277 C133.931732,130.309252 133.471895,129.384889 132.663956,128.815939 C131.136895,127.739666 129.151429,127.943169 127.684533,129.14699 C126.671744,129.976768 126.050033,131.101768 125.57587,132.352882 C124.88683,134.177245 124.227873,136.014506 123.835364,137.964984 C123.659165,138.842054 123.368364,139.696194 123.054643,140.524538 C122.652106,141.589347 121.908631,141.787118 121.066312,141.112118 C120.87722,140.958774 120.721076,140.752404 120.557769,140.561799 C120.117987,140.051608 119.689665,139.532818 119.245585,139.029793 C118.245689,137.893328 117.013726,137.215462 115.632781,137.158137 C112.862297,137.043487 110.087514,137.027723 107.314165,137.060685 C106.479008,137.06785 105.822916,137.629634 105.552171,138.614188 C105.302913,139.52422 105.509195,140.346831 106.150962,140.881385 C106.557797,141.221035 107.132235,141.440303 107.637913,141.454634 C109.907017,141.513392 112.177554,141.478997 114.446659,141.48043 C115.204459,141.481863 115.923582,141.630908 116.493723,142.264347 C116.891962,142.705748 117.285904,143.150016 117.661223,143.61578 C118.355993,144.478519 119.148174,145.159252 120.138042,145.523264 C122.792493,146.497787 125.286502,145.877245 126.568603,142.583933 C127.085741,141.261162 127.514063,139.891099 127.939521,138.525334 C128.406521,137.034889 128.806192,135.517213 129.27176,134.026768 C129.466582,133.40336 129.794628,132.860207 130.483668,132.562118 C130.682787,133.142532 130.964993,133.710048 131.070999,134.314825 C131.605327,137.354475 132.103843,140.40129 132.595195,143.449538 C132.868806,145.129156 133.060763,146.828838 133.373051,148.498424 C133.775588,150.646672 134.275536,152.736162 135.491741,154.554793 C136.955772,156.741736 140.49695,157.393806 141.64726,153.65336 C142.184453,151.900653 142.678671,150.100653 142.950849,148.274857 C143.846171,142.231385 144.102591,136.109092 144.47791,130.00543 C144.807389,124.644124 145.122542,119.284252 145.44056,113.924379 C145.558027,111.949538 145.654005,109.973264 145.791527,108.00129 C146.022162,104.71801 146.282879,101.437596 146.529272,98.1571815" id="Fill-13" fill="#CEE0DC"></path>
                        <path d="M146.529272,98.1571815 C146.282879,101.437596 146.022162,104.71801 145.791527,108.00129 C145.654005,109.973264 145.558027,111.949538 145.44056,113.924379 C145.122542,119.284252 144.807389,124.644124 144.47791,130.00543 C144.102591,136.109092 143.846171,142.231385 142.950849,148.274857 C142.678671,150.100653 142.184453,151.900653 141.64726,153.65336 C140.49695,157.393806 136.955772,156.741736 135.491741,154.554793 C134.275536,152.736162 133.775588,150.646672 133.373051,148.498424 C133.060763,146.828838 132.868806,145.129156 132.595195,143.449538 C132.103843,140.40129 131.605327,137.354475 131.070999,134.314825 C130.964993,133.710048 130.682787,133.142532 130.483668,132.562118 C129.794628,132.860207 129.466582,133.40336 129.27176,134.026768 C128.806192,135.517213 128.406521,137.034889 127.939521,138.525334 C127.514063,139.891099 127.085741,141.261162 126.568603,142.583933 C125.286502,145.877245 122.792493,146.497787 120.138042,145.523264 C119.148174,145.159252 118.355993,144.478519 117.661223,143.61578 C117.285904,143.150016 116.891962,142.705748 116.493723,142.264347 C115.923582,141.630908 115.204459,141.481863 114.446659,141.48043 C112.177554,141.478997 109.907017,141.513392 107.637913,141.454634 C107.132235,141.440303 106.557797,141.221035 106.150962,140.881385 C105.509195,140.346831 105.302913,139.52422 105.552171,138.614188 C105.822916,137.629634 106.479008,137.06785 107.314165,137.060685 C110.087514,137.027723 112.862297,137.043487 115.632781,137.158137 C117.013726,137.215462 118.245689,137.893328 119.245585,139.029793 C119.689665,139.532818 120.117987,140.051608 120.557769,140.561799 C120.721076,140.752404 120.87722,140.958774 121.066312,141.112118 C121.908631,141.787118 122.652106,141.589347 123.054643,140.524538 C123.368364,139.696194 123.659165,138.842054 123.835364,137.964984 C124.227873,136.014506 124.88683,134.177245 125.57587,132.352882 C126.050033,131.101768 126.671744,129.976768 127.684533,129.14699 C129.151429,127.943169 131.136895,127.739666 132.663956,128.815939 C133.471895,129.384889 133.931732,130.309252 134.345729,131.262277 C135.335597,133.538073 135.718079,135.998742 136.059017,138.476608 C136.484475,141.569283 136.889876,144.664825 137.372634,147.747468 C137.537373,148.79508 137.90553,149.801131 138.180573,150.827245 L138.373962,150.818646 C138.610327,149.247946 138.918318,147.68871 139.070165,146.106545 C139.442619,142.215621 139.800748,138.320398 140.057168,134.41801 C140.501248,127.703838 140.837889,120.9825 141.266211,114.266895 C141.625772,108.656226 141.975306,103.042691 142.482416,97.4477866 C142.678671,95.2622771 143.278895,93.1226274 143.722975,90.9700796 C143.808925,90.5559076 144.003748,90.1703981 144.171352,89.7820223 C144.957803,87.9476274 146.724094,87.6251752 148.037711,88.4148248 C148.473195,88.677086 148.89149,89.2560669 149.050499,89.7934873 C149.510337,91.3670541 149.915738,92.9735828 150.199376,94.6001752 C151.207867,100.411481 151.428475,106.323105 151.7336,112.217532 C152.19487,121.107182 152.561594,130.002564 153.011404,138.893646 C153.388156,146.335844 153.816478,153.776608 154.243367,161.214506 C154.383754,163.662277 154.592901,166.104315 154.773398,168.547787 C154.781993,168.663869 154.809211,168.778519 154.929542,168.897468 C155.009763,168.143646 155.105741,167.391258 155.165907,166.633137 C155.330646,164.600971 155.496818,162.568806 155.631475,160.535207 C155.946628,155.691258 156.257484,150.848742 156.546852,146.00336 C156.797542,141.787118 156.988067,137.566576 157.255947,133.353201 C157.54818,128.768646 157.771652,124.171194 158.2716,119.616736 C158.651217,116.161481 158.889014,112.651768 159.838772,109.301131 C160.113815,108.330908 160.398886,107.373583 161.125171,106.657022 C162.387217,105.417373 164.230864,105.562118 165.226462,107.09699 C166.128947,108.488551 166.66614,110.080748 166.862395,111.789029 C167.289284,115.463551 167.710444,119.139506 168.042787,122.825494 C168.304938,125.736162 168.400916,128.665462 168.625821,131.58043 C168.991113,136.315462 169.349241,141.05336 169.814809,145.775494 C170.102744,148.697627 170.581205,151.595398 170.983741,154.501768 C171.022419,154.774061 171.13129,155.032022 171.207214,155.295717 C171.263082,155.300016 171.317517,155.304315 171.371953,155.307182 C171.526665,154.587755 171.738677,153.87836 171.824628,153.147468 C172.283033,149.311003 172.712787,145.471672 173.139677,141.629475 C173.371744,139.52422 173.480616,137.394602 173.820122,135.31371 C174.16679,133.181226 174.678198,131.080271 175.209662,128.996513 C175.473244,127.958933 175.95457,127.025971 176.720965,126.285048 C178.024554,125.025334 179.779386,124.800334 181.297852,125.700334 C182.551303,126.442691 183.154392,127.715303 183.624257,129.116895 C184.413573,131.471513 184.750214,133.942213 185.046744,136.428678 C185.34041,138.896513 185.732919,141.34715 186.121131,143.797787 C186.201352,144.31371 186.376119,144.845398 186.625376,145.283933 C187.15111,146.203997 187.802904,146.086481 188.198278,145.44301 C188.513432,144.931385 188.79134,144.338073 188.914536,143.734729 C189.421646,141.239666 189.837076,138.718806 190.342754,136.222309 C190.564794,135.124538 190.845567,134.023901 191.228048,132.989188 C192.922714,128.406067 197.671502,128.933455 199.576748,131.778201 C200.515045,133.17836 200.99637,134.741895 201.471965,136.352723 C201.854447,137.649697 202.256984,138.93664 202.681008,140.214984 C203.215337,141.825812 203.983165,141.931863 205.223723,140.62199 C205.786702,140.028678 206.086097,139.114347 206.535907,138.370557 C207.06164,137.497787 207.577346,136.607818 208.176137,135.802404 C209.749039,133.689984 212.522389,133.705748 214.477772,134.628678 C215.100916,134.923901 215.716898,135.302245 216.252659,135.76801 C217.294097,136.675175 218.455867,137.027723 219.735103,137.02629 C222.436827,137.023424 225.139984,137.001927 227.84314,137.04922 C228.31587,137.056385 228.840171,137.252723 229.242708,137.542213 C229.917422,138.028041 230.150922,139.002564 229.931748,139.835207 C229.692517,140.743806 229.01064,141.4575 228.211297,141.456067 C224.915079,141.450334 221.618861,141.446035 218.324076,141.345717 C216.815637,141.299857 215.464775,140.581863 214.24857,139.56578 C213.648346,139.062755 213.029499,138.634252 212.263103,138.525334 C211.681502,138.442213 211.240287,138.614188 210.915106,139.178838 C210.433781,140.01578 209.940996,140.842691 209.463968,141.6825 C208.845122,142.771672 208.20622,143.807818 207.25503,144.590303 C205.748024,145.829952 204.103496,146.234092 202.3458,145.725334 C201.665355,145.53043 201.032183,144.987277 200.456312,144.485685 C199.495094,143.653041 198.980821,142.436322 198.571122,141.176608 C198.283186,140.288073 198.066876,139.372309 197.784671,138.482341 C197.446597,137.408933 197.078441,136.345557 196.705987,135.285048 C196.621468,135.039984 196.488244,134.809252 196.344993,134.601449 C195.809232,133.814666 195.330772,133.907818 194.941128,134.796354 C194.180462,136.524697 194.118864,138.435048 193.786521,140.276608 C193.49572,141.887436 193.169106,143.489666 192.836763,145.090462 C192.57891,146.337277 191.934278,147.35336 191.279619,148.356545 C189.711014,150.759889 186.192757,150.963392 184.482333,149.272309 C183.714505,148.515621 183.155824,147.645717 182.796263,146.615303 C182.430971,145.569124 182.188876,144.465621 181.893778,143.387914 C181.09157,140.439984 181.08011,137.345876 180.591622,134.340621 C180.39107,133.108137 180.118892,131.891417 179.855309,130.673264 C179.789413,130.372309 179.624674,130.098583 179.495748,129.787596 C178.875468,130.378041 178.674916,131.137596 178.564613,131.89285 C178.140588,134.79492 177.716563,137.699857 177.382787,140.617691 C177.061904,143.393646 176.953033,146.206863 176.569119,148.96992 C176.19953,151.619761 175.635119,154.23664 175.076438,156.84492 C174.835775,157.961322 174.294284,158.927245 173.514996,159.732659 C172.169864,161.12422 170.254591,161.127086 168.926649,159.729793 C167.913861,158.664984 167.519919,157.25336 167.216226,155.825971 C166.813689,153.928519 166.525754,151.996672 166.232088,150.07199 C165.196379,143.264666 165.001557,136.359889 164.471527,129.493806 C164.195051,125.880908 163.930036,122.265143 163.60772,118.657978 C163.483091,117.269283 163.210913,115.897787 162.90722,114.513392 C162.788321,115.581067 162.632177,116.647309 162.556254,117.719283 C162.033386,125.157182 161.510517,132.593646 161.02203,140.034411 C160.563625,147.033774 160.204063,154.044602 159.696953,161.041099 C159.383232,165.390621 158.927692,169.730111 158.420582,174.056704 C158.258708,175.436799 157.81033,176.801131 157.334735,178.095239 C156.549717,180.227723 154.839294,180.746513 153.187603,179.405111 C152.823744,179.107022 152.502861,178.575334 152.378232,178.080908 C151.9671,176.44285 151.560266,174.791895 151.328198,173.11371 C151.013045,170.857978 150.882686,168.569283 150.636294,166.300653 C149.844113,159.014666 149.689401,151.681385 149.345597,144.361003 C148.94879,135.922787 148.615014,127.477404 148.249723,119.034889 C148.19099,117.654793 148.143717,116.274697 148.037711,114.900334 C147.619416,109.486003 147.179634,104.075971 146.744149,98.6645064 C146.731257,98.4896656 146.676821,98.3205573 146.639576,98.1500159 C146.603763,98.151449 146.565085,98.1543153 146.529272,98.1571815" id="Fill-15" fill="#CEE0DC"></path>
                        <path d="M323.567969,98.1571815 C323.599485,98.1543153 323.632433,98.151449 323.663948,98.1500159 C323.695463,98.3205573 323.744169,98.4896656 323.755629,98.6645064 C324.135245,104.075971 324.517727,109.486003 324.883018,114.900334 C324.974699,116.274697 325.019107,117.654793 325.070678,119.034889 C325.388696,127.477404 325.680929,135.922787 326.026166,144.361003 C326.325561,151.681385 326.46165,159.014666 327.152123,166.300653 C327.367,168.569283 327.480169,170.857978 327.755212,173.11371 C327.958629,174.791895 328.313893,176.44285 328.672021,178.080908 C328.782325,178.575334 329.061666,179.107022 329.381117,179.405111 C330.820794,180.746513 332.313475,180.227723 332.99965,178.095239 C333.41508,176.801131 333.804724,175.436799 333.946543,174.056704 C334.392055,169.730111 334.787429,165.390621 335.06104,161.041099 C335.50512,154.044602 335.81884,147.033774 336.219945,140.034411 C336.645402,132.593646 337.102374,125.157182 337.559347,117.719283 C337.625242,116.647309 337.759899,115.581067 337.86304,114.513392 C338.129488,115.897787 338.365853,117.269283 338.474724,118.657978 C338.758362,122.265143 338.988997,125.880908 339.231092,129.493806 C339.692362,136.359889 339.862831,143.264666 340.766748,150.07199 C341.023169,151.996672 341.275291,153.928519 341.626258,155.825971 C341.891273,157.25336 342.233644,158.664984 343.117506,159.729793 C344.277844,161.127086 345.949589,161.12422 347.122819,159.732659 C347.803264,158.927245 348.277426,157.961322 348.486574,156.84492 C348.975061,154.23664 349.467847,151.619761 349.790163,148.96992 C350.125371,146.206863 350.22135,143.393646 350.50069,140.617691 C350.792923,137.699857 351.163945,134.79492 351.532101,131.89285 C351.629512,131.137596 351.802847,130.378041 352.344337,129.787596 C352.457506,130.098583 352.60219,130.372309 352.659491,130.673264 C352.890126,131.891417 353.126491,133.108137 353.301258,134.340621 C353.728147,137.345876 353.738175,140.439984 354.438675,143.387914 C354.695095,144.465621 354.90854,145.569124 355.226558,146.615303 C355.538847,147.645717 356.027334,148.515621 356.697752,149.272309 C358.191865,150.963392 361.261745,150.759889 362.632663,148.356545 C363.204236,147.35336 363.765782,146.337277 363.990687,145.090462 C364.280055,143.489666 364.566558,141.887436 364.820113,140.276608 C365.110914,138.435048 365.163917,136.524697 365.827172,134.796354 C366.16811,133.907818 366.584972,133.814666 367.053405,134.601449 C367.178034,134.809252 367.294067,135.039984 367.368558,135.285048 C367.693739,136.345557 368.014623,137.408933 368.311153,138.482341 C368.556113,139.372309 368.745206,140.288073 368.997328,141.176608 C369.355457,142.436322 369.802402,143.653041 370.640423,144.485685 C371.146101,144.987277 371.69762,145.53043 372.292113,145.725334 C373.826337,146.234092 375.261718,145.829952 376.576767,144.590303 C377.407626,143.807818 377.964874,142.771672 378.504933,141.6825 C378.921794,140.842691 379.351549,140.01578 379.771276,139.178838 C380.056347,138.614188 380.441693,138.442213 380.948804,138.525334 C381.616356,138.634252 382.156414,139.062755 382.682147,139.56578 C383.743641,140.581863 384.924034,141.299857 386.239083,141.345717 C389.115574,141.446035 391.993497,141.450334 394.868555,141.456067 C395.569055,141.4575 396.163549,140.743806 396.371264,139.835207 C396.563221,139.002564 396.359804,138.028041 395.769607,137.542213 C395.420074,137.252723 394.961669,137.056385 394.549104,137.04922 C392.188319,137.001927 389.830399,137.023424 387.469613,137.02629 C386.355117,137.027723 385.340896,136.675175 384.431248,135.76801 C383.964248,135.302245 383.425623,134.923901 382.881267,134.628678 C381.176574,133.705748 378.752758,133.689984 377.38184,135.802404 C376.858972,136.607818 376.409163,137.497787 375.947893,138.370557 C375.556816,139.114347 375.294666,140.028678 374.804745,140.62199 C373.721764,141.931863 373.051347,141.825812 372.585779,140.214984 C372.214758,138.93664 371.863791,137.649697 371.528583,136.352723 C371.113153,134.741895 370.693426,133.17836 369.874028,131.778201 C368.21231,128.933455 364.06661,128.406067 362.58539,132.989188 C362.251613,134.023901 362.008086,135.124538 361.813264,136.222309 C361.373482,138.718806 361.009623,141.239666 360.566975,143.734729 C360.459537,144.338073 360.216009,144.931385 359.942399,145.44301 C359.597163,146.086481 359.028454,146.203997 358.570049,145.283933 C358.350874,144.845398 358.199028,144.31371 358.127402,143.797787 C357.790761,141.34715 357.446957,138.896513 357.190537,136.428678 C356.931252,133.942213 356.637586,131.471513 355.948546,129.116895 C355.538847,127.715303 355.010248,126.442691 353.918672,125.700334 C352.593595,124.800334 351.059371,125.025334 349.921954,126.285048 C349.254402,127.025971 348.834675,127.958933 348.60404,128.996513 C348.139905,131.080271 347.69296,133.181226 347.390699,135.31371 C347.095601,137.394602 346.999623,139.52422 346.796206,141.629475 C346.425184,145.471672 346.047,149.311003 345.650193,153.147468 C345.572837,153.87836 345.388043,154.587755 345.254819,155.307182 C345.204681,155.304315 345.157408,155.300016 345.108702,155.295717 C345.042807,155.032022 344.948261,154.774061 344.915313,154.501768 C344.562914,151.595398 344.146052,148.697627 343.893929,145.775494 C343.487095,141.05336 343.176239,136.315462 342.856788,131.58043 C342.659101,128.665462 342.576015,125.736162 342.346813,122.825494 C342.056012,119.139506 341.689288,115.463551 341.318267,111.789029 C341.144933,110.080748 340.675067,108.488551 339.890049,107.09699 C339.01908,105.562118 337.410365,105.417373 336.310193,106.657022 C335.674156,107.373583 335.424899,108.330908 335.185669,109.301131 C334.356242,112.651768 334.14996,116.161481 333.817617,119.616736 C333.382132,124.171194 333.18731,128.768646 332.93089,133.353201 C332.695957,137.566576 332.531218,141.787118 332.312043,146.00336 C332.05992,150.848742 331.787742,155.691258 331.511267,160.535207 C331.396666,162.568806 331.250549,164.600971 331.10873,166.633137 C331.054294,167.391258 330.969776,168.143646 330.899583,168.897468 C330.796442,168.778519 330.770656,168.663869 330.763494,168.547787 C330.60735,166.104315 330.423988,163.662277 330.302224,161.214506 C329.928337,153.776608 329.555883,146.335844 329.226405,138.893646 C328.833896,130.002564 328.514445,121.107182 328.110475,112.217532 C327.842595,106.323105 327.652071,100.411481 326.771074,94.6001752 C326.523248,92.9735828 326.169417,91.3670541 325.76688,89.7934873 C325.629359,89.2560669 325.2655,88.677086 324.884451,88.4148248 C323.737006,87.6251752 322.19562,87.9476274 321.509445,89.7820223 C321.363328,90.1703981 321.192859,90.5559076 321.118368,90.9700796 C320.731589,93.1226274 320.205856,95.2622771 320.033954,97.4477866 C319.592739,103.042691 319.287613,108.656226 318.973893,114.266895 C318.600006,120.9825 318.304908,127.703838 317.918129,134.41801 C317.691791,138.320398 317.380936,142.215621 317.055755,146.106545 C316.922531,147.68871 316.65465,149.247946 316.446936,150.818646 L316.279331,150.827245 C316.038669,149.801131 315.717785,148.79508 315.574534,147.747468 C315.153374,144.664825 314.799543,141.569283 314.427089,138.476608 C314.130558,135.998742 313.796782,133.538073 312.931543,131.262277 C312.570549,130.309252 312.169445,129.384889 311.464647,128.815939 C310.130975,127.739666 308.397632,127.943169 307.116963,129.14699 C306.233101,129.976768 305.69161,131.101768 305.276181,132.352882 C304.675957,134.177245 304.100086,136.014506 303.757715,137.964984 C303.603003,138.842054 303.349448,139.696194 303.074405,140.524538 C302.723439,141.589347 302.074509,141.787118 301.338196,141.112118 C301.17489,140.958774 301.037368,140.752404 300.895549,140.561799 C300.511635,140.051608 300.137748,139.532818 299.750969,139.029793 C298.877135,137.893328 297.804181,137.215462 296.596571,137.158137 C294.177052,137.043487 291.756101,137.027723 289.336583,137.060685 C288.606,137.06785 288.032994,137.629634 287.796629,138.614188 C287.578887,139.52422 287.759383,140.346831 288.319497,140.881385 C288.674761,141.221035 289.176141,141.440303 289.617356,141.454634 C291.598525,141.513392 293.579693,141.478997 295.562294,141.48043 C296.222684,141.481863 296.851558,141.630908 297.347209,142.264347 C297.693877,142.705748 298.040546,143.150016 298.36716,143.61578 C298.973113,144.478519 299.665018,145.159252 300.530258,145.523264 C302.846635,146.497787 305.024058,145.877245 306.144285,142.583933 C306.594095,141.261162 306.967982,139.891099 307.340436,138.525334 C307.74727,137.034889 308.095371,135.517213 308.502206,134.026768 C308.672675,133.40336 308.96061,132.860207 309.560834,132.562118 C309.735601,133.142532 309.980561,133.710048 310.073675,134.314825 C310.539242,137.354475 310.974727,140.40129 311.405914,143.449538 C311.642279,145.129156 311.809883,146.828838 312.082061,148.498424 C312.43446,150.646672 312.871377,152.736162 313.931439,154.554793 C315.210675,156.741736 318.302043,157.393806 319.304804,153.65336 C319.776101,151.900653 320.207288,150.100653 320.442221,148.274857 C321.224374,142.231385 321.449279,136.109092 321.777325,130.00543 C322.063828,124.644124 322.338871,119.284252 322.618212,113.924379 C322.71992,111.949538 322.803006,109.973264 322.92477,108.00129 C323.125322,104.71801 323.35166,101.437596 323.567969,98.1571815" id="Fill-17" fill="#CEE0DC"></path>
                        <path d="M323.567969,98.1571815 C323.35166,101.437596 323.125322,104.71801 322.92477,108.00129 C322.803006,109.973264 322.71992,111.949538 322.618212,113.924379 C322.338871,119.284252 322.063828,124.644124 321.777325,130.00543 C321.449279,136.109092 321.224374,142.231385 320.442221,148.274857 C320.207288,150.100653 319.776101,151.900653 319.304804,153.65336 C318.302043,157.393806 315.210675,156.741736 313.931439,154.554793 C312.871377,152.736162 312.43446,150.646672 312.082061,148.498424 C311.809883,146.828838 311.642279,145.129156 311.405914,143.449538 C310.974727,140.40129 310.539242,137.354475 310.073675,134.314825 C309.980561,133.710048 309.735601,133.142532 309.560834,132.562118 C308.96061,132.860207 308.672675,133.40336 308.502206,134.026768 C308.095371,135.517213 307.74727,137.034889 307.340436,138.525334 C306.967982,139.891099 306.594095,141.261162 306.144285,142.583933 C305.024058,145.877245 302.846635,146.497787 300.530258,145.523264 C299.665018,145.159252 298.973113,144.478519 298.36716,143.61578 C298.040546,143.150016 297.693877,142.705748 297.347209,142.264347 C296.851558,141.630908 296.222684,141.481863 295.562294,141.48043 C293.579693,141.478997 291.598525,141.513392 289.617356,141.454634 C289.176141,141.440303 288.674761,141.221035 288.319497,140.881385 C287.759383,140.346831 287.578887,139.52422 287.796629,138.614188 C288.032994,137.629634 288.606,137.06785 289.336583,137.060685 C291.756101,137.027723 294.177052,137.043487 296.596571,137.158137 C297.804181,137.215462 298.877135,137.893328 299.750969,139.029793 C300.137748,139.532818 300.511635,140.051608 300.895549,140.561799 C301.037368,140.752404 301.17489,140.958774 301.338196,141.112118 C302.074509,141.787118 302.723439,141.589347 303.074405,140.524538 C303.349448,139.696194 303.603003,138.842054 303.757715,137.964984 C304.100086,136.014506 304.675957,134.177245 305.276181,132.352882 C305.69161,131.101768 306.233101,129.976768 307.116963,129.14699 C308.397632,127.943169 310.130975,127.739666 311.464647,128.815939 C312.169445,129.384889 312.570549,130.309252 312.931543,131.262277 C313.796782,133.538073 314.130558,135.998742 314.427089,138.476608 C314.799543,141.569283 315.153374,144.664825 315.574534,147.747468 C315.717785,148.79508 316.038669,149.801131 316.279331,150.827245 L316.446936,150.818646 C316.65465,149.247946 316.922531,147.68871 317.055755,146.106545 C317.380936,142.215621 317.691791,138.320398 317.918129,134.41801 C318.304908,127.703838 318.600006,120.9825 318.973893,114.266895 C319.287613,108.656226 319.592739,103.042691 320.033954,97.4477866 C320.205856,95.2622771 320.731589,93.1226274 321.118368,90.9700796 C321.192859,90.5559076 321.363328,90.1703981 321.509445,89.7820223 C322.19562,87.9476274 323.737006,87.6251752 324.884451,88.4148248 C325.2655,88.677086 325.629359,89.2560669 325.76688,89.7934873 C326.169417,91.3670541 326.523248,92.9735828 326.771074,94.6001752 C327.652071,100.411481 327.842595,106.323105 328.110475,112.217532 C328.514445,121.107182 328.833896,130.002564 329.226405,138.893646 C329.555883,146.335844 329.928337,153.776608 330.302224,161.214506 C330.423988,163.662277 330.60735,166.104315 330.763494,168.547787 C330.770656,168.663869 330.796442,168.778519 330.899583,168.897468 C330.969776,168.143646 331.054294,167.391258 331.10873,166.633137 C331.250549,164.600971 331.396666,162.568806 331.511267,160.535207 C331.787742,155.691258 332.05992,150.848742 332.312043,146.00336 C332.531218,141.787118 332.695957,137.566576 332.93089,133.353201 C333.18731,128.768646 333.382132,124.171194 333.817617,119.616736 C334.14996,116.161481 334.356242,112.651768 335.185669,109.301131 C335.424899,108.330908 335.674156,107.373583 336.310193,106.657022 C337.410365,105.417373 339.01908,105.562118 339.890049,107.09699 C340.675067,108.488551 341.144933,110.080748 341.318267,111.789029 C341.689288,115.463551 342.056012,119.139506 342.346813,122.825494 C342.576015,125.736162 342.659101,128.665462 342.856788,131.58043 C343.176239,136.315462 343.487095,141.05336 343.893929,145.775494 C344.146052,148.697627 344.562914,151.595398 344.915313,154.501768 C344.948261,154.774061 345.042807,155.032022 345.108702,155.295717 C345.157408,155.300016 345.204681,155.304315 345.254819,155.307182 C345.388043,154.587755 345.572837,153.87836 345.650193,153.147468 C346.047,149.311003 346.425184,145.471672 346.796206,141.629475 C346.999623,139.52422 347.095601,137.394602 347.390699,135.31371 C347.69296,133.181226 348.139905,131.080271 348.60404,128.996513 C348.834675,127.958933 349.254402,127.025971 349.921954,126.285048 C351.059371,125.025334 352.593595,124.800334 353.918672,125.700334 C355.010248,126.442691 355.538847,127.715303 355.948546,129.116895 C356.637586,131.471513 356.931252,133.942213 357.190537,136.428678 C357.446957,138.896513 357.790761,141.34715 358.127402,143.797787 C358.199028,144.31371 358.350874,144.845398 358.570049,145.283933 C359.028454,146.203997 359.597163,146.086481 359.942399,145.44301 C360.216009,144.931385 360.459537,144.338073 360.566975,143.734729 C361.009623,141.239666 361.373482,138.718806 361.813264,136.222309 C362.008086,135.124538 362.251613,134.023901 362.58539,132.989188 C364.06661,128.406067 368.21231,128.933455 369.874028,131.778201 C370.693426,133.17836 371.113153,134.741895 371.528583,136.352723 C371.863791,137.649697 372.214758,138.93664 372.585779,140.214984 C373.051347,141.825812 373.721764,141.931863 374.804745,140.62199 C375.294666,140.028678 375.556816,139.114347 375.947893,138.370557 C376.409163,137.497787 376.858972,136.607818 377.38184,135.802404 C378.752758,133.689984 381.176574,133.705748 382.881267,134.628678 C383.425623,134.923901 383.964248,135.302245 384.431248,135.76801 C385.340896,136.675175 386.355117,137.027723 387.469613,137.02629 C389.830399,137.023424 392.188319,137.001927 394.549104,137.04922 C394.961669,137.056385 395.420074,137.252723 395.769607,137.542213 C396.359804,138.028041 396.563221,139.002564 396.371264,139.835207 C396.163549,140.743806 395.569055,141.4575 394.868555,141.456067 C391.993497,141.450334 389.115574,141.446035 386.239083,141.345717 C384.924034,141.299857 383.743641,140.581863 382.682147,139.56578 C382.156414,139.062755 381.616356,138.634252 380.948804,138.525334 C380.441693,138.442213 380.056347,138.614188 379.771276,139.178838 C379.351549,140.01578 378.921794,140.842691 378.504933,141.6825 C377.964874,142.771672 377.407626,143.807818 376.576767,144.590303 C375.261718,145.829952 373.826337,146.234092 372.292113,145.725334 C371.69762,145.53043 371.146101,144.987277 370.640423,144.485685 C369.802402,143.653041 369.355457,142.436322 368.997328,141.176608 C368.745206,140.288073 368.556113,139.372309 368.311153,138.482341 C368.014623,137.408933 367.693739,136.345557 367.368558,135.285048 C367.294067,135.039984 367.178034,134.809252 367.053405,134.601449 C366.584972,133.814666 366.16811,133.907818 365.827172,134.796354 C365.163917,136.524697 365.110914,138.435048 364.820113,140.276608 C364.566558,141.887436 364.280055,143.489666 363.990687,145.090462 C363.765782,146.337277 363.204236,147.35336 362.632663,148.356545 C361.261745,150.759889 358.191865,150.963392 356.697752,149.272309 C356.027334,148.515621 355.538847,147.645717 355.226558,146.615303 C354.90854,145.569124 354.695095,144.465621 354.438675,143.387914 C353.738175,140.439984 353.728147,137.345876 353.301258,134.340621 C353.126491,133.108137 352.890126,131.891417 352.659491,130.673264 C352.60219,130.372309 352.457506,130.098583 352.344337,129.787596 C351.802847,130.378041 351.629512,131.137596 351.532101,131.89285 C351.163945,134.79492 350.792923,137.699857 350.50069,140.617691 C350.22135,143.393646 350.125371,146.206863 349.790163,148.96992 C349.467847,151.619761 348.975061,154.23664 348.486574,156.84492 C348.277426,157.961322 347.803264,158.927245 347.122819,159.732659 C345.949589,161.12422 344.277844,161.127086 343.117506,159.729793 C342.233644,158.664984 341.891273,157.25336 341.626258,155.825971 C341.275291,153.928519 341.023169,151.996672 340.766748,150.07199 C339.862831,143.264666 339.692362,136.359889 339.231092,129.493806 C338.988997,125.880908 338.758362,122.265143 338.474724,118.657978 C338.365853,117.269283 338.129488,115.897787 337.86304,114.513392 C337.759899,115.581067 337.625242,116.647309 337.559347,117.719283 C337.102374,125.157182 336.645402,132.593646 336.219945,140.034411 C335.81884,147.033774 335.50512,154.044602 335.06104,161.041099 C334.787429,165.390621 334.392055,169.730111 333.946543,174.056704 C333.804724,175.436799 333.41508,176.801131 332.99965,178.095239 C332.313475,180.227723 330.820794,180.746513 329.381117,179.405111 C329.061666,179.107022 328.782325,178.575334 328.672021,178.080908 C328.313893,176.44285 327.958629,174.791895 327.755212,173.11371 C327.480169,170.857978 327.367,168.569283 327.152123,166.300653 C326.46165,159.014666 326.325561,151.681385 326.026166,144.361003 C325.680929,135.922787 325.388696,127.477404 325.070678,119.034889 C325.019107,117.654793 324.974699,116.274697 324.883018,114.900334 C324.517727,109.486003 324.135245,104.075971 323.755629,98.6645064 C323.744169,98.4896656 323.695463,98.3205573 323.663948,98.1500159 C323.632433,98.151449 323.599485,98.1543153 323.567969,98.1571815" id="Fill-19" fill="#CEE0DC"></path>
                        <path d="M311.916176,209.734825 L177.107888,209.734825 C174.742805,209.734825 172.810342,207.800111 172.810342,205.435462 L172.810342,34.9757484 C172.810342,32.6110987 174.742805,30.6763854 177.107888,30.6763854 L311.916176,30.6763854 C314.278394,30.6763854 316.213722,32.6110987 316.213722,34.9757484 L316.213722,205.435462 C316.213722,207.800111 314.278394,209.734825 311.916176,209.734825" id="Fill-21" fill="#F4F4F4"></path>
                        <polygon id="Fill-23" fill="#FEFEFE" points="167.768031 52.1502707 188.840332 52.1502707 191.736878 29.2375318 192.550546 19.6126911 167.768031 23.507914"></polygon>
                        <path d="M172.809769,52.1502707 L188.839615,52.1502707 C190.322269,52.1502707 191.534177,50.9364172 191.534177,49.4545701 L191.534177,30.6763854 L172.809769,52.1502707 Z" id="Fill-25" fill="#D2D4D5"></path>
                        <path d="M276.390082,202.129825 C283.091389,209.291131 289.731098,216.386513 296.432404,223.550685 C302.499107,216.31629 308.481291,209.182213 314.353171,202.181417 C315.89599,203.542882 317.332803,204.812627 318.798266,206.105303 C320.471444,199.517245 322.168975,192.838901 323.930969,185.906895 C317.304153,187.778551 310.9753,189.567086 304.478843,191.404347 C306.035987,193.046704 307.452745,194.540016 308.905315,196.073455 C304.613499,201.19543 300.396174,206.227118 296.104358,211.351959 C289.378699,204.167723 282.741855,197.07664 276.053441,189.929666 C267.825073,199.749411 259.679791,209.471704 251.482938,219.252755 C253.587303,221.015494 255.604285,222.70371 257.679999,224.443519 C263.958714,216.956895 270.15864,209.563424 276.390082,202.129825" id="Fill-27" fill="#74BF43"></path>
                        <path d="M226.382118,86.9216561 L226.382118,74.0966561 L239.201698,74.0966561 L239.201698,74.7014331 C239.193102,74.7487261 239.184507,74.7974522 239.18021,74.8461783 C239.152992,75.1399682 239.138667,75.433758 239.101421,75.7261146 C238.966765,76.7679936 238.71894,77.7826433 238.327863,78.7600318 C237.11882,81.7724522 235.073188,84.0324841 232.195265,85.5272293 C230.706882,86.2996815 229.118222,86.7425159 227.445044,86.8772293 C227.291765,86.8901274 227.138486,86.9058917 226.985207,86.9216561 L226.382118,86.9216561 Z" id="Fill-29" fill="#D19595"></path>
                        <path d="M224.156419,84.6838376 C217.747345,84.748328 211.829624,79.7395701 211.359759,72.7273089 C210.852649,65.1346338 216.973787,58.848965 224.478735,59.0424363 C231.634149,59.228742 237.008946,65.1475318 236.967403,71.8588376 L224.156419,71.8588376 L224.156419,84.6838376 Z" id="Fill-31" fill="#CEE0DC"></path>
                        <path d="M271.966618,77.4944427 C271.969483,76.7664172 271.366394,76.1616401 270.638676,76.1587739 C269.913824,76.1559076 269.305005,76.763551 269.303572,77.4872771 C269.303572,78.2110032 269.910959,78.824379 270.631514,78.824379 C271.357799,78.8258121 271.965186,78.2196019 271.966618,77.4944427 M255.501287,81.062914 C256.223275,81.0586146 256.836391,80.4423726 256.832094,79.7272452 C256.824931,78.9977866 256.208949,78.3944427 255.474069,78.398742 C254.766406,78.4030414 254.15329,79.0250159 254.157587,79.7372771 C254.160452,80.4567038 254.779299,81.0672134 255.501287,81.062914 M280.285235,62.7820223 C279.563247,62.7820223 278.95013,63.3925318 278.947265,64.1133917 C278.945833,64.8299522 279.561814,65.4476274 280.28237,65.4490605 C281.020115,65.4504936 281.624637,64.8500159 281.621771,64.1133917 C281.620339,63.393965 281.00579,62.7820223 280.285235,62.7820223 M264.586299,66.4694427 C263.222544,66.4651433 262.116643,67.5528822 262.108048,68.9086146 C262.099452,70.2528822 263.179569,71.3678503 264.480293,71.3836146 C265.925701,71.4036783 267.014413,70.2285191 267.01871,68.9501752 C267.023008,67.5801115 265.935729,66.4723089 264.586299,66.4694427 M269.59294,74.9176911 C270.246167,74.6410987 270.899394,74.6453981 271.555486,74.8560669 C271.650032,74.8875955 271.678683,74.8403025 271.720225,74.7815446 C272.15571,74.1681688 272.591195,73.5533599 273.025247,72.9399841 C274.682667,70.6025637 276.338655,68.2680096 277.994643,65.9305892 C278.020428,65.893328 278.044781,65.8560669 278.071998,65.8159395 C277.610729,65.1681688 277.405879,64.4573408 277.53767,63.6705573 C277.649406,62.9855255 277.98748,62.4208758 278.516078,61.9751752 C279.523137,61.1224682 281.010087,61.1153025 282.034336,61.9565446 C283.094397,62.8293153 283.373738,64.2395064 282.721943,65.4132325 C282.090204,66.5468312 280.670581,67.2304299 279.197956,66.6557484 C278.940103,67.0197611 278.680817,67.3880732 278.421532,67.7563854 C276.58075,70.3675318 274.739968,72.9801115 272.897753,75.5898248 C272.847615,75.6614809 272.80464,75.7130732 272.876265,75.8105255 C274.02944,77.3955573 273.250152,79.6226274 271.362097,80.1428503 C269.782032,80.577086 268.136072,79.5065446 267.888247,77.8799522 C267.769348,77.1017675 267.95271,76.396672 268.426873,75.7532006 C267.68483,74.6740605 266.939922,73.5934873 266.210771,72.5358439 C265.889888,72.618965 265.593357,72.7164172 265.291097,72.7680096 C264.41583,72.9213535 263.573511,72.8024045 262.78133,72.3896656 C262.672459,72.3337739 262.622321,72.3538376 262.54783,72.4426911 C261.000713,74.2828185 259.450732,76.1186465 257.90075,77.9559076 C257.857775,78.0046338 257.819097,78.0576592 257.781851,78.1049522 C258.864833,79.6527229 258.1056,81.7866401 256.302063,82.3584554 C254.700511,82.8657803 252.961437,81.7551115 252.74083,80.0869586 C252.537413,78.552086 253.597474,77.1519268 255.1274,76.9326592 C255.610158,76.8653025 256.075725,76.9426911 256.5284,77.1160987 C256.622946,77.154793 256.673084,77.1404618 256.73898,77.0616401 C258.296124,75.2100478 259.857566,73.3613217 261.416143,71.5125955 C261.472011,71.446672 261.540771,71.399379 261.457686,71.2875955 C260.096796,69.4560669 260.517956,67.0111624 262.411741,65.7342516 C264.657925,64.2194427 267.691992,65.3344108 268.405385,67.9469904 C268.772109,69.2926911 268.415413,70.4807484 267.540146,71.5355255 C267.392597,71.7132325 267.389732,71.7089331 267.521523,71.9038376 C268.184778,72.8711943 268.848032,73.8399841 269.512719,74.8073408 C269.53564,74.8403025 269.55856,74.8718312 269.59294,74.9176911" id="Fill-33" fill="#D19595"></path>
                        <path d="M294.0699,116.951417 L196.065796,116.951417 C194.1319,116.951417 192.550403,115.369252 192.550403,113.435971 L192.550403,112.561768 C192.550403,110.628487 194.1319,109.044889 196.065796,109.044889 L294.0699,109.044889 C296.002363,109.044889 297.58386,110.628487 297.58386,112.561768 L297.58386,113.435971 C297.58386,115.369252 296.002363,116.951417 294.0699,116.951417" id="Fill-35" fill="#D2DFDC"></path>
                        <path d="M294.0699,135.02078 L196.065796,135.02078 C194.1319,135.02078 192.550403,133.438615 192.550403,131.505334 L192.550403,130.631131 C192.550403,128.69785 194.1319,127.115685 196.065796,127.115685 L294.0699,127.115685 C296.002363,127.115685 297.58386,128.69785 297.58386,130.631131 L297.58386,131.505334 C297.58386,133.438615 296.002363,135.02078 294.0699,135.02078" id="Fill-37" fill="#D2DFDC"></path>
                        <path d="M294.0699,151.960844 L196.065796,151.960844 C194.1319,151.960844 192.550403,150.378678 192.550403,148.445398 L192.550403,147.571194 C192.550403,145.637914 194.1319,144.055748 196.065796,144.055748 L294.0699,144.055748 C296.002363,144.055748 297.58386,145.637914 297.58386,147.571194 L297.58386,148.445398 C297.58386,150.378678 296.002363,151.960844 294.0699,151.960844" id="Fill-39" fill="#D2DFDC"></path>
                        <path d="M294.0699,170.031497 L196.065796,170.031497 C194.1319,170.031497 192.550403,168.449331 192.550403,166.514618 L192.550403,165.641847 C192.550403,163.707134 194.1319,162.124968 196.065796,162.124968 L294.0699,162.124968 C296.002363,162.124968 297.58386,163.707134 297.58386,165.641847 L297.58386,166.514618 C297.58386,168.449331 296.002363,170.031497 294.0699,170.031497" id="Fill-41" fill="#D2DFDC"></path>
                        <path d="M410.787812,92.9536624 C416.24856,92.9536624 420.6736,97.910828 420.6736,104.027389 C420.6736,110.143949 416.24856,115.102548 410.787812,115.102548 C405.325631,115.102548 400.900591,110.143949 400.900591,104.027389 C400.900591,97.910828 405.325631,92.9536624 410.787812,92.9536624" id="Fill-43" fill="#2F9CA2"></path>
                        <path d="M395.418928,136.067675 C395.418928,133.917994 397.137946,132.304299 399.180713,132.304299 L408.745618,132.304299 C409.175372,132.304299 409.497688,131.981847 409.497688,131.553344 L410.14232,124.671497 C410.14232,124.455096 410.034882,124.134076 409.927443,123.917675 L406.489406,120.478185 C406.273096,120.263217 405.952213,120.154299 405.735903,120.263217 C401.974118,121.123089 397.782578,122.520382 396.169566,124.671497 C393.699909,128.003503 392.301774,135.422771 391.87202,138.326274 C391.764581,138.971178 392.194336,139.508599 392.838967,139.508599 L394.774296,139.508599 C395.20405,139.508599 395.526366,139.186146 395.526366,138.75621 L395.526366,136.067675 L395.418928,136.067675 Z" id="Fill-45" fill="#2F9CA2"></path>
                        <path d="M427.875857,124.671354 C426.262845,122.520239 421.963867,121.122946 418.30952,120.263073 C417.988637,120.155589 417.772327,120.263073 417.558882,120.478041 L414.11798,123.918965 C413.903103,124.133933 413.797097,124.347468 413.903103,124.671354 L414.549167,131.553201 C414.549167,131.983137 414.871483,132.304156 415.301238,132.304156 L425.188459,132.304156 C427.338664,132.304156 428.950244,134.025334 428.950244,136.067532 L428.950244,138.648583 C428.950244,139.078519 429.273992,139.400971 429.702314,139.400971 L431.313894,139.400971 C431.959959,139.400971 432.388281,138.863551 432.282275,138.218646 C431.745081,135.422627 430.239508,128.00336 427.875857,124.671354" id="Fill-47" fill="#2F9CA2"></path>
                        <path d="M447.651302,163.05492 L442.491382,146.49664 C442.276504,145.95922 441.84675,145.638201 441.309556,145.638201 L429.595879,145.638201 C429.166124,145.638201 428.842375,145.95922 428.842375,146.389156 L428.842375,153.808424 C428.842375,155.959538 427.123357,157.679283 424.974584,157.679283 L399.180713,157.679283 C397.030507,157.679283 395.311489,155.959538 395.311489,153.808424 L395.311489,146.389156 C395.311489,145.95922 394.98774,145.638201 394.557986,145.638201 L382.627998,145.638201 C382.090805,145.638201 381.662483,145.95922 381.447606,146.49664 L376.289118,163.05492 L376.289118,168.000621 C376.289118,168.645525 376.826311,169.182946 377.470943,169.182946 L446.253167,169.182946 C446.899231,169.182946 447.436425,168.645525 447.436425,168.000621 L447.651302,163.05492 Z" id="Fill-49" fill="#2F9CA2"></path>
                        <path d="M424.221797,154.453328 L399.718622,154.453328 C398.965119,154.453328 398.320487,153.808424 398.320487,153.056035 L398.320487,136.820207 C398.320487,136.067818 398.965119,135.422914 399.718622,135.422914 L424.221797,135.422914 C424.973868,135.422914 425.6185,136.067818 425.6185,136.820207 L425.6185,153.056035 C425.6185,153.808424 424.973868,154.453328 424.221797,154.453328" id="Fill-51" fill="#2F9CA2"></path>
                        <path d="M84.5744163,167.082707 C80.6049163,166.965191 76.6339837,166.892102 72.6659163,166.718694 C69.7708028,166.591146 66.8771218,166.370446 64.0192537,165.815828 C62.8603488,165.590828 62.0037046,165.049108 61.3447475,164.051656 C59.8735543,161.814554 58.961042,159.368217 58.4997721,156.755637 C57.3766801,150.406911 59.0169101,144.658662 62.6139561,139.465032 C66.6694071,133.609299 72.3049224,129.997834 79.2855696,128.640669 C87.6156463,127.021242 95.1678672,128.907229 101.75887,134.251338 C106.623692,138.19672 109.606189,143.320127 110.710659,149.516943 C111.524327,154.081433 110.793744,158.403726 108.725192,162.513917 C108.31406,163.333662 107.720999,164.060255 107.218186,164.83414 C106.91879,165.292739 106.487603,165.549268 105.964735,165.64242 C104.665444,165.874586 103.37045,166.162643 102.061131,166.295924 C96.2479837,166.886369 90.4147813,166.998153 84.5744163,167.082707" id="Fill-53" fill="#2F9CA2"></path>
                        <path d="M84.6960368,124.499092 C77.2097117,124.480462 71.2862607,119.625048 69.8508804,112.373455 C68.9469632,107.813264 69.5872975,103.490971 72.1944755,99.5857166 C74.6970798,95.8409713 78.2611779,93.7500478 82.7277607,93.2412898 C86.3634847,92.828551 89.7914939,93.4834873 92.8814294,95.5084873 C96.3280613,97.767086 98.4080736,101.00164 99.281908,104.98715 C100.175798,109.068678 99.7618006,113.04129 97.7562791,116.747341 C95.4871748,120.93922 91.9574571,123.442882 87.2545092,124.264061 C86.8906503,124.328551 86.5239264,124.387309 86.1572025,124.417404 C85.6314693,124.463264 85.1057362,124.476162 84.6960368,124.499092" id="Fill-55" fill="#2F9CA2"></path>
                        <path d="M119.715737,69.3100318 C120.956295,69.3200637 121.999166,68.2294586 122.010626,66.908121 C122.022086,65.4993631 121.02219,64.3872611 119.735792,64.3786624 C118.495233,64.3700637 117.45093,65.4621019 117.43947,66.7805732 C117.426577,68.1907643 118.426473,69.3 119.715737,69.3100318 M127.127571,69.3100318 C128.401077,69.3 129.406703,68.2007962 129.39954,66.8221338 C129.392378,65.463535 128.356669,64.361465 127.103218,64.3800955 C125.828279,64.3958599 124.819789,65.4979299 124.824086,66.8694268 C124.831249,68.2165605 125.872687,69.3214968 127.127571,69.3100318 M136.792752,66.8507962 C136.797049,65.4821656 135.772801,64.3757962 134.50216,64.3786624 C133.244411,64.3829618 132.21873,65.486465 132.214433,66.8378981 C132.211568,68.1921975 133.225789,69.2928344 134.489267,69.3100318 C135.755611,69.3272293 136.787022,68.2251592 136.792752,66.8507962 M115.753399,83.2313694 C115.065792,82.7785032 114.385347,82.3671975 113.73785,81.9014331 C111.003178,79.9323248 108.801402,77.4386943 107.313019,74.2514331 C106.53946,72.5990446 106.023755,70.8549363 105.807445,69.016242 C105.241602,64.2210191 106.47643,59.9746815 109.225427,56.2170382 C111.364172,53.2934713 114.100276,51.2039809 117.250378,49.7264331 C119.105485,48.8565287 121.037948,48.268949 123.033442,47.9192675 C124.738135,47.6197452 126.452856,47.5065287 128.173307,47.593949 C133.217194,47.8461783 137.825595,49.4570064 141.835206,52.8320064 C144.56558,55.1278662 146.605482,57.991242 147.744332,61.5482484 C148.398991,63.591879 148.666871,65.6971338 148.53508,67.8582803 C148.292985,71.8050955 146.861902,75.2130573 144.469602,78.1667197 C141.928319,81.3052548 138.746703,83.4047771 135.108114,84.7347134 C133.446396,85.3423567 131.74027,85.7335987 129.995467,85.9442675 C128.47127,86.1291401 126.945641,86.1664013 125.417148,86.0574841 C124.74673,86.008758 124.079178,85.8984076 123.407329,85.8296178 C123.301322,85.819586 123.169531,85.8539809 123.08358,85.9184713 C121.347371,87.2125796 119.506589,88.2902866 117.50823,89.0398089 C116.001224,89.6044586 114.459838,89.9699045 112.856853,89.9699045 C112.225114,89.9684713 111.768141,89.360828 111.950071,88.7359873 C112.000209,88.5640127 112.117675,88.389172 112.246602,88.2730892 C113.176304,87.4375796 114.028651,86.5275478 114.709095,85.441242 C115.143148,84.7461783 115.495546,84.0109873 115.753399,83.2313694" id="Fill-57" fill="#D19595"></path>
                        <path d="M66.102704,32.2392038 C66.0840813,30.1253503 64.4094709,28.3740764 62.4240046,28.3869745 C60.3583175,28.4027389 58.7567653,30.1841083 58.7768206,32.4441401 C58.7940107,34.5594268 60.4643236,36.3092675 62.4540874,36.2920701 C64.5212071,36.2748726 66.1227592,34.4963694 66.102704,32.2392038 M54.2629647,32.3796497 C54.2729923,30.181242 52.657115,28.4156369 50.6114831,28.3869745 C48.6016641,28.3597452 46.9413788,30.1253503 46.9313512,32.3036943 C46.9198911,34.5135669 48.5286058,36.2763057 50.5728052,36.2935032 C52.5840567,36.3092675 54.2543696,34.5393631 54.2629647,32.3796497 M38.7688788,36.2920701 C40.7973206,36.267707 42.424658,34.4992357 42.4189279,32.3294904 C42.4131979,30.1640446 40.7643727,28.3912739 38.7488236,28.3869745 C36.7132193,28.3826752 35.0715567,30.156879 35.0801518,32.3509873 C35.0887469,34.5536943 36.7404371,36.3207325 38.7688788,36.2920701 M70.4819034,62.1513057 C71.5691825,63.8939809 72.9372347,65.351465 74.4270506,66.6928662 C74.6347653,66.879172 74.8224248,67.1571975 74.9026457,67.4337898 C75.1948788,68.4369745 74.4628635,69.4100637 73.4500752,69.4100637 C70.8787101,69.4114968 68.4061887,68.8267834 65.9924003,67.921051 C62.789296,66.7200955 59.8397469,64.9931847 57.0563696,62.9165924 C56.9159831,62.8134076 56.7039709,62.758949 56.534934,62.7761465 C55.459115,62.8850637 54.3890261,63.0627707 53.3117745,63.1401592 C50.8636058,63.315 48.4183021,63.256242 45.9758635,62.9610191 C43.178161,62.6213694 40.4420567,61.9936624 37.7775782,61.0191401 C31.9443758,58.8895223 26.8460537,55.5216879 22.7705475,50.49 C18.935704,45.7564013 16.6422469,40.2919108 16.2540353,33.9661146 C16.0434555,30.500828 16.4703451,27.1272611 17.5218113,23.8497134 C19.3482684,18.1458917 22.6187009,13.5584713 26.9936028,9.87678344 C33.4241641,4.46675159 40.8116457,1.88426752 48.8938972,1.47869427 C51.6529218,1.33968153 54.4019187,1.5216879 57.1337255,2.00035032 C60.3353972,2.56213376 63.4324954,3.50369427 66.4049647,4.89812102 C71.4560138,7.26707006 75.8423758,10.617707 79.270385,15.3040127 C83.6796672,21.3288535 85.6551058,28.1347452 84.7511887,35.8220064 C84.4016549,38.7713694 83.5765261,41.5645223 82.3374003,44.2143631 C79.9508298,49.3234395 76.4196794,53.3232803 72.037615,56.4775796 C70.9990414,57.2242357 69.9074647,57.8849045 68.8044279,58.6086306 C69.2198574,59.8583121 69.7857009,61.0406369 70.4819034,62.1513057" id="Fill-59" fill="#74BF43"></path>
                        <path d="M39.9859439,102.714076 C39.5977322,101.669331 38.4517199,101.100382 37.4690144,101.465828 C36.447631,101.844172 35.9734684,103.016465 36.3888979,104.131433 C36.778542,105.179045 37.9216893,105.745127 38.9043948,105.379682 C39.9272107,104.999904 40.4013733,103.829045 39.9859439,102.714076 M34.1398488,104.911051 C33.7487721,103.820446 32.6314101,103.235732 31.6114592,103.589713 C30.610131,103.937962 30.1058856,105.111688 30.4912322,106.193694 C30.8837414,107.290032 31.9982383,107.876178 33.0138917,107.516465 C34.0137874,107.162484 34.5237629,105.984459 34.1398488,104.911051 M27.160634,109.638917 C28.1619623,109.260573 28.65045,108.09258 28.2579408,107.017739 C27.8654316,105.944331 26.7294469,105.362484 25.7309837,105.723631 C24.7210604,106.087643 24.2239776,107.261369 24.6222169,108.349108 C25.0233212,109.43828 26.1607383,110.017261 27.160634,109.638917 M47.5310021,116.758662 C48.3833488,117.426497 49.3245113,117.903726 50.3029193,118.300701 C50.4404408,118.355159 50.5822598,118.458344 50.6725083,118.581592 C50.9976893,119.027293 50.8100298,119.642102 50.3072169,119.822675 C49.0322782,120.287006 47.702904,120.44035 46.3420144,120.426019 C44.5384776,120.405955 42.7635911,120.080637 41.0116248,119.551815 C40.9228089,119.524586 40.8082077,119.536051 40.7279868,119.576178 C40.2137138,119.822675 39.716631,120.103567 39.1951954,120.335732 C38.0133702,120.861688 36.7900021,121.272994 35.5265236,121.56535 C34.0782506,121.900701 32.6084899,122.081274 31.1115113,122.078408 C27.8382138,122.069809 24.7038702,121.315987 21.7786739,119.554682 C19.026812,117.897994 16.9081218,115.600701 15.5787475,112.533822 C14.8510298,110.854204 14.457088,109.10293 14.3897598,107.288599 C14.270861,104.132866 15.0673396,101.26949 16.5757782,98.6583439 C18.7918794,94.8190127 21.9892537,92.2107325 25.9272383,90.5554777 C27.2695052,89.990828 28.6647752,89.5866879 30.1058856,89.3330255 C31.7933887,89.0349363 33.4980819,88.9460828 35.2228304,89.102293 C38.1537567,89.3674204 40.9299715,90.2416242 43.4726862,91.9484713 C46.7402537,94.1440127 48.9434623,97.1621656 49.8745972,101.13621 C50.2327261,102.661051 50.3258396,104.19449 50.1868856,105.730796 C49.9218702,108.69449 48.8890267,111.312803 47.283177,113.665987 C46.9021279,114.220605 46.4795359,114.746561 46.0626739,115.302611 C46.493861,115.847197 46.9866463,116.331592 47.5310021,116.758662" id="Fill-61" fill="#CEE0DC"></path>
                        <g id="Group-65" transform="translate(136.088957, 0.877070)">
                            <mask id="mask-4" fill="white">
                                <use xlink:href="#path-3"></use>
                            </mask>
                            <g id="Clip-64"></g>
                            <path d="M71.3977104,9.20479299 L4.54794969,9.20479299 C2.43212454,9.20479299 0.703078528,7.4735828 0.703078528,5.35829618 L0.703078528,4.40240446 C0.703078528,2.28711783 2.43212454,0.555907643 4.54794969,0.555907643 L71.3977104,0.555907643 C73.5121031,0.555907643 75.2425816,2.28711783 75.2425816,4.40240446 L75.2425816,5.35829618 C75.2425816,7.4735828 73.5121031,9.20479299 71.3977104,9.20479299" id="Fill-63" fill="#FFCC05" mask="url(#mask-4)"></path>
                        </g>
                        <path d="M329.474373,19.6125478 L302.951352,19.6125478 C300.838392,19.6125478 299.107913,17.8813376 299.107913,15.766051 L299.107913,14.8101592 C299.107913,12.6948726 300.838392,10.9636624 302.951352,10.9636624 L329.474373,10.9636624 C331.590198,10.9636624 333.319244,12.6948726 333.319244,14.8101592 L333.319244,15.766051 C333.319244,17.8813376 331.590198,19.6125478 329.474373,19.6125478" id="Fill-66" fill="#D19595"></path>
                        <path d="M462.745859,58.2285669 C461.605577,54.6715605 459.565675,51.8096178 456.836733,49.5123248 C452.827123,46.1373248 448.217289,44.5264968 443.176267,44.2742675 C441.455816,44.1882803 439.739663,44.3000637 438.036402,44.599586 C436.038043,44.9492675 434.108445,45.5382803 432.253338,46.4081847 C429.101804,47.8842994 426.3657,49.9737898 424.226954,52.8973567 C421.476525,56.6564331 420.243129,60.9013376 420.810405,65.6965605 C421.026715,67.5366879 421.540988,69.2793631 422.313114,70.9331847 C423.801497,74.1190127 426.006138,76.6140764 428.74081,78.5817516 C429.386875,79.0475159 430.067319,79.4588217 430.756359,79.913121 C430.497074,80.6913057 430.143243,81.4279299 429.70919,82.1215605 C429.031611,83.2092994 428.177832,84.1178981 427.249562,84.9534076 C427.120635,85.0709236 427.001737,85.2457643 426.953031,85.4163057 C426.769669,86.0425796 427.226641,86.6502229 427.858381,86.6502229 C429.462798,86.6516561 431.004184,86.2862102 432.51119,85.7215605 C434.508117,84.9706051 436.348899,83.8943312 438.083675,82.6002229 C438.172491,82.5342994 438.304283,82.5013376 438.410289,82.5099363 C439.079273,82.5787261 439.748258,82.6890764 440.420108,82.7392357 C441.947169,82.8481529 443.472798,82.8094586 444.995562,82.624586 C446.740365,82.4153503 448.449356,82.0241083 450.111074,81.416465 C453.749663,80.0865287 456.929847,77.9855732 459.472562,74.8484713 C461.864862,71.8933758 463.295945,68.485414 463.536608,64.5385987 C463.669832,62.3788854 463.401951,60.2736306 462.745859,58.2285669" id="Fill-68" fill="#FFCC05"></path>
                        <path d="M401.861092,72.0685032 C401.772276,71.9466879 401.629025,71.8435032 401.491503,71.7876115 C400.513095,71.3906369 399.571933,70.9134076 398.719586,70.2455732 C398.17523,69.8199363 397.682445,69.3355414 397.251258,68.7909554 C397.669552,68.2320382 398.090712,67.708949 398.471761,67.151465 C400.079043,64.7997134 401.111887,62.1814013 401.37547,59.2191401 C401.514424,57.6828344 401.42131,56.1493949 401.063181,54.623121 C400.132046,50.6490764 397.928838,47.6294904 394.66127,45.4353822 C392.118556,43.728535 389.342341,42.8557643 386.412847,42.5906369 C384.686666,42.4329936 382.981973,42.5232803 381.29447,42.8199363 C379.854792,43.0750318 378.458089,43.4777389 377.115822,44.0423885 C373.180703,45.6976433 369.980463,48.3073567 367.764362,52.1452548 C366.257356,54.7578344 365.459445,57.6197771 365.578344,60.7769427 C365.645672,62.5912739 366.039614,64.3396815 366.767332,66.0207325 C368.096706,69.0890446 370.215396,71.3834713 372.967258,73.0430255 C375.892454,74.8043312 379.026798,75.5581529 382.301528,75.5638854 C383.797074,75.5681847 385.266835,75.3876115 386.715108,75.0522611 C387.978586,74.7599045 389.201954,74.3500318 390.383779,73.8226433 C390.905215,73.5904777 391.402298,73.309586 391.918003,73.0616561 C391.998224,73.0229618 392.112825,73.0129299 392.201641,73.0387261 C393.953608,73.5675478 395.727062,73.8928662 397.532031,73.9129299 C398.891488,73.9286943 400.220862,73.7739172 401.495801,73.3110191 C401.998614,73.1275796 402.187706,72.5156369 401.861092,72.0685032" id="Fill-70" fill="#74BF43"></path>
                        <path d="M442.491955,58.5699363 C439.996513,58.5699363 437.972369,60.5949363 437.972369,63.0942994 C437.972369,63.9169108 438.203004,64.6821975 438.575458,65.351465 C439.684225,67.3549682 439.979323,68.478535 440.161252,69.5662739 C440.313099,70.4777389 440.522246,70.6898408 441.209853,70.6898408 L442.491955,70.6898408 L443.775488,70.6898408 C444.464528,70.6898408 444.673675,70.4777389 444.826955,69.5662739 C445.008884,68.478535 445.30255,67.353535 446.411317,65.351465 C446.785203,64.6821975 447.014406,63.9169108 447.014406,63.0942994 C447.015838,60.5949363 444.990261,58.5699363 442.491955,58.5699363" id="Fill-72" fill="#FEFEFE"></path>
                        <path d="M444.110554,71.0174522 L440.877367,71.0174522 C440.74271,71.0174522 440.635271,71.1249363 440.635271,71.2596497 L440.635271,71.4215924 C440.635271,71.5548726 440.74271,71.6637898 440.877367,71.6637898 L444.110554,71.6637898 C444.243778,71.6637898 444.351216,71.5548726 444.351216,71.4215924 L444.351216,71.2596497 C444.352649,71.1249363 444.243778,71.0174522 444.110554,71.0174522" id="Fill-74" fill="#FEFEFE"></path>
                        <path d="M444.110554,71.9872452 L440.877367,71.9872452 C440.74271,71.9872452 440.635271,72.0947293 440.635271,72.2294427 L440.635271,72.3913854 C440.635271,72.5246656 440.74271,72.6321497 440.877367,72.6321497 L444.110554,72.6321497 C444.243778,72.6321497 444.351216,72.5246656 444.351216,72.3913854 L444.351216,72.2294427 C444.352649,72.0947293 444.243778,71.9872452 444.110554,71.9872452" id="Fill-76" fill="#FEFEFE"></path>
                        <path d="M444.110554,72.9571815 L440.877367,72.9571815 C440.74271,72.9571815 440.635271,73.0646656 440.635271,73.199379 L440.635271,73.3613217 C440.635271,73.4946019 440.74271,73.6035191 440.877367,73.6035191 L444.110554,73.6035191 C444.243778,73.6035191 444.351216,73.4946019 444.351216,73.3613217 L444.351216,73.199379 C444.352649,73.0646656 444.243778,72.9571815 444.110554,72.9571815" id="Fill-78" fill="#FEFEFE"></path>
                        <path d="M441.281909,73.9271178 L443.705725,73.9271178 C443.705725,74.4115127 443.05966,74.733965 442.492384,74.733965 C441.927973,74.733965 441.281909,74.4115127 441.281909,73.9271178" id="Fill-80" fill="#FEFEFE"></path>
                        <path d="M447.686255,55.3846815 C448.09882,54.6623885 446.985755,54.0146178 446.570326,54.7354777 C446.351151,55.1123885 444.778249,57.841051 444.778249,57.841051 L445.897044,58.4873885 C445.897044,58.4873885 447.296611,56.0611146 447.684823,55.3875478 L447.686255,55.3875478 L447.686255,55.3846815 Z" id="Fill-82" fill="#FEFEFE"></path>
                        <path d="M450.207052,57.9135669 L450.207052,57.9135669 L450.20562,57.9135669 L450.204187,57.9135669 C449.636911,58.2417516 447.200203,59.6505096 447.200203,59.6505096 L447.846267,60.7697771 C447.846267,60.7697771 450.287273,59.359586 450.854549,59.0314013 C451.57797,58.6143631 450.92904,57.500828 450.207052,57.9135669" id="Fill-84" fill="#FEFEFE"></path>
                        <path d="M443.163518,53.8283121 L443.163518,57.2764013 L441.871389,57.2764013 L441.871389,53.8283121 C441.871389,52.9942357 443.163518,52.9942357 443.163518,53.8283121" id="Fill-86" fill="#FEFEFE"></path>
                        <path d="M437.321434,55.3846815 C436.908869,54.6623885 438.021934,54.0146178 438.437363,54.7354777 C438.656538,55.1123885 440.230872,57.841051 440.230872,57.841051 L439.112078,58.4873885 C439.112078,58.4873885 437.709645,56.0611146 437.322866,55.3875478 L437.321434,55.3846815 Z" id="Fill-88" fill="#FEFEFE"></path>
                        <path d="M434.801926,57.9135669 L434.801926,57.9135669 L434.803358,57.9135669 C435.372067,58.2417516 437.808775,59.6505096 437.808775,59.6505096 L437.161279,60.7697771 C437.161279,60.7697771 434.71884,59.359586 434.151564,59.0314013 C433.429576,58.6143631 434.078506,57.500828 434.801926,57.9135669" id="Fill-90" fill="#FEFEFE"></path>
                        <path d="M380.913421,54.0047293 C378.80046,55.3346656 378.162991,58.1263854 379.492365,60.2431051 C379.929283,60.9396019 380.532371,61.4641242 381.204221,61.8338694 C383.209743,62.9373726 384.054927,63.7327548 384.788375,64.5567994 C385.401491,65.2475637 385.692292,65.3163535 386.273893,64.9494745 C386.523151,64.7918312 386.92712,64.5381688 387.35974,64.2658758 C387.793792,63.9950159 388.199194,63.7384873 388.445586,63.5837102 C389.030052,63.2168312 389.094516,62.9259076 388.737819,62.0732006 C388.313795,61.0542516 387.965694,59.946449 387.841065,57.660621 C387.799522,56.8953344 387.586077,56.1243153 387.14916,55.4278185 C385.821218,53.3125318 383.029246,52.674793 380.913421,54.0047293" id="Fill-92" fill="#FEFEFE"></path>
                        <path d="M388.904134,63.6824522 L386.16803,65.4021975 C386.053429,65.4752866 386.019048,65.6228981 386.090674,65.7375478 L386.178058,65.8736943 C386.248251,65.9869108 386.397233,66.0227389 386.511834,65.9496497 L389.246506,64.2299045 C389.359674,64.1596815 389.394055,64.0106369 389.323861,63.8959873 L389.236478,63.7598408 C389.166285,63.6451911 389.015871,63.6122293 388.904134,63.6824522" id="Fill-94" fill="#FEFEFE"></path>
                        <path d="M389.41898,64.5040605 L386.682876,66.2238057 C386.569707,66.2954618 386.535327,66.4445064 386.606953,66.5591561 L386.692904,66.6953025 C386.763097,66.8085191 386.913511,66.842914 387.02668,66.771258 L389.762784,65.0515127 C389.87452,64.9798567 389.910333,64.8308121 389.838707,64.7161624 L389.752756,64.5800159 C389.682563,64.4667994 389.532149,64.4324045 389.41898,64.5040605" id="Fill-96" fill="#FEFEFE"></path>
                        <path d="M389.935116,65.3255255 L387.199011,67.0452707 C387.085843,67.1169268 387.05003,67.2659713 387.121656,67.380621 L387.209039,67.5167675 C387.279232,67.6299841 387.429646,67.664379 387.542815,67.5927229 L390.278919,65.8729777 C390.390656,65.8013217 390.426468,65.6522771 390.354843,65.5376274 L390.268892,65.4014809 C390.198698,65.2882643 390.048284,65.2538694 389.935116,65.3255255" id="Fill-98" fill="#FEFEFE"></path>
                        <path d="M388.056372,67.6514809 L390.110599,66.361672 C390.367019,66.7715446 389.9917,67.3892197 389.511807,67.6901752 C389.03478,67.9911306 388.315657,68.0613535 388.056372,67.6514809" id="Fill-100" fill="#FEFEFE"></path>
                        <path d="M383.61758,48.5436783 C383.583199,47.7124682 382.293936,47.7554618 382.326883,48.5881051 C382.341209,49.0223408 382.460107,52.1709076 382.460107,52.1709076 L383.753669,52.1236146 C383.753669,52.1236146 383.647663,49.3232962 383.61758,48.5465446 L383.61758,48.5451115 L383.61758,48.5436783 Z" id="Fill-102" fill="#FEFEFE"></path>
                        <path d="M387.09673,49.3414968 L387.09673,49.3414968 L387.095297,49.3429299 L387.093865,49.3443631 C386.787306,49.9247771 385.47369,52.4141083 385.47369,52.4141083 L386.615405,53.0174522 C386.615405,53.0174522 387.933319,50.5238217 388.239877,49.9434076 C388.629521,49.2067834 387.487806,48.6077389 387.09673,49.3414968" id="Fill-104" fill="#FEFEFE"></path>
                        <path d="M378.960472,49.6325637 C379.063613,49.7988057 380.794092,52.5532643 380.794092,52.5532643 L379.69965,53.2411624 C379.69965,53.2411624 377.970604,50.4881369 377.864598,50.3204618 C377.421951,49.6153662 378.51496,48.9274682 378.960472,49.6325637" id="Fill-106" fill="#FEFEFE"></path>
                        <path d="M374.841991,54.0607643 C374.108543,53.6695223 374.705902,52.528758 375.440782,52.9157006 C375.826129,53.1206369 378.610939,54.5924522 378.610939,54.5924522 L378.00785,55.7346497 C378.00785,55.7346497 375.529598,54.4262102 374.843423,54.0636306 L374.843423,54.0621975 L374.841991,54.0607643 Z" id="Fill-108" fill="#FEFEFE"></path>
                        <path d="M374.052961,57.5426752 L374.052961,57.5426752 L374.052961,57.5441083 L374.054394,57.5426752 C374.711918,57.516879 377.522513,57.4136943 377.522513,57.4136943 L377.569787,58.7063694 C377.569787,58.7063694 374.752029,58.8109873 374.097369,58.8353503 C373.263645,58.866879 373.22067,57.5785032 374.052961,57.5426752" id="Fill-110" fill="#FEFEFE"></path>
                        <path d="M405.42562,108.198774 L416.951639,108.198774 C416.951639,108.198774 415.355817,112.277436 411.188629,112.45371 C407.02001,112.631417 405.42562,108.198774 405.42562,108.198774" id="Fill-112" fill="#FEFEFE"></path>
                        <path d="M75.9233129,115.777261 L94.6706411,115.777261 C94.6706411,115.777261 92.0749233,121.333471 85.2976933,121.574236 C78.5190307,121.816433 75.9233129,115.777261 75.9233129,115.777261" id="Fill-114" fill="#FEFEFE"></path>
                    </g>
                </g>
            </g>
        </g>
    </g>
</svg>