<?xml version="1.0" encoding="UTF-8" standalone="no"?>
<svg width="299px" height="245px" viewBox="0 0 299 245" version="1.1" xmlns="http://www.w3.org/2000/svg" xmlns:xlink="http://www.w3.org/1999/xlink">
    <!-- Generator: sketchtool 3.8 (29681) - http://www.bohemiancoding.com/sketch -->
    <title>3B80C231-C933-4F56-8A94-1568BE237D2D</title>
    <desc>Created with sketchtool.</desc>
    <defs>
        <polygon id="path-1" points="0 244.358333 298.044602 244.358333 298.044602 0 0 0"></polygon>
    </defs>
    <g id="Interactions" stroke="none" stroke-width="1" fill="none" fill-rule="evenodd">
        <g id="API-use-cases" transform="translate(-565.000000, -520.000000)">
            <g id="Group-5-Copy" transform="translate(146.000000, 520.000000)">
                <g id="api-case2" transform="translate(419.000000, 0.000000)">
                    <path d="M45.9248816,212.7524 L3.98545977,212.7524 C1.79318242,212.7524 0.000350390625,210.961567 0.000350390625,208.771733 C0.000350390625,206.5819 1.79318242,204.791067 3.98545977,204.791067 L45.9248816,204.791067 C48.117159,204.791067 49.909991,206.5819 49.909991,208.771733 C49.909991,210.961567 48.117159,212.7524 45.9248816,212.7524 L45.9248816,212.7524 Z" id="Fill-1" fill="#3F8EBF"></path>
                    <path d="M84.6846254,83.846 L52.4124809,83.846 C49.7705355,83.846 47.6086254,81.6853333 47.6086254,79.0463333 C47.6086254,76.4061667 49.7705355,74.2455 52.4124809,74.2455 L84.6846254,74.2455 C87.3277387,74.2455 89.4884809,76.4061667 89.4884809,79.0463333 C89.4884809,81.6853333 87.3277387,83.846 84.6846254,83.846" id="Fill-3" fill="#FFCC05"></path>
                    <path d="M246.213302,32.2996333 L221.158036,32.2996333 C218.618872,32.2996333 216.542224,30.2253 216.542224,27.6901333 C216.542224,25.1538 218.618872,23.0794667 221.158036,23.0794667 L246.213302,23.0794667 C248.752466,23.0794667 250.829114,25.1538 250.829114,27.6901333 C250.829114,30.2253 248.752466,32.2996333 246.213302,32.2996333" id="Fill-5" fill="#3F8EBF"></path>
                    <path d="M131.899529,7.96133333 L105.135525,7.96133333 C102.943247,7.96133333 101.150415,6.1705 101.150415,3.98066667 C101.150415,1.79083333 102.943247,0 105.135525,0 L131.899529,0 C134.091806,0 135.884638,1.79083333 135.884638,3.98066667 C135.884638,6.1705 134.091806,7.96133333 131.899529,7.96133333" id="Fill-7" fill="#D19595"></path>
                    <path d="M222.666818,217.525 L77.4065449,217.525 C75.4782285,217.525 73.9026387,215.95 73.9026387,214.025 L73.9026387,31.1896667 C73.9026387,29.2646667 75.4782285,27.6896667 77.4065449,27.6896667 L222.666818,27.6896667 C224.593967,27.6896667 226.170725,29.2646667 226.170725,31.1896667 L226.170725,214.025 C226.170725,215.95 224.593967,217.525 222.666818,217.525" id="Fill-9" fill="#F4F4F4"></path>
                    <path d="M275.274467,244.358333 L173.960186,244.358333 C171.110342,244.358333 168.779076,242.029667 168.779076,239.183 L168.779076,178.36 C168.779076,175.513333 171.110342,173.184667 173.960186,173.184667 L275.274467,173.184667 C278.123143,173.184667 280.455576,175.513333 280.455576,178.36 L280.455576,239.183 C280.455576,242.029667 278.123143,244.358333 275.274467,244.358333" id="Fill-11" fill="#BCBBBB"></path>
                    <path d="M269.960443,238.88725 L179.273509,238.88725 C176.477392,238.88725 174.188173,236.600583 174.188173,233.806417 L174.188173,183.73775 C174.188173,180.942417 176.477392,178.65575 179.273509,178.65575 L269.960443,178.65575 C272.757728,178.65575 275.045779,180.942417 275.045779,183.73775 L275.045779,233.806417 C275.045779,236.600583 272.757728,238.88725 269.960443,238.88725" id="Fill-13" fill="#FEFEFE"></path>
                    <path d="M169.136475,100.254467 L132.420209,100.254467 C128.793666,100.254467 125.827025,97.2899667 125.827025,93.6674667 C125.827025,90.0461333 128.793666,87.0816333 132.420209,87.0816333 L169.136475,87.0816333 C172.76185,87.0816333 175.730826,90.0461333 175.730826,93.6674667 C175.730826,97.2899667 172.76185,100.254467 169.136475,100.254467" id="Fill-15" fill="#2F9CA2"></path>
                    <path d="M113.748009,98.3483667 L93.7932633,98.3483667 C91.1700055,98.3483667 89.0232789,96.2040333 89.0232789,93.5848667 C89.0232789,90.9645333 91.1700055,88.8202 93.7932633,88.8202 L113.748009,88.8202 C116.370099,88.8202 118.516826,90.9645333 118.516826,93.5848667 C118.516826,96.2040333 116.370099,98.3483667 113.748009,98.3483667" id="Fill-17" fill="#D2DFDC"></path>
                    <path d="M179.707526,124.955017 L148.846288,124.955017 C145.220913,124.955017 142.253104,121.991683 142.253104,118.368017 C142.253104,114.746683 145.220913,111.782183 148.846288,111.782183 L179.707526,111.782183 C183.334069,111.782183 186.301878,114.746683 186.301878,118.368017 C186.301878,121.991683 183.334069,124.955017 179.707526,124.955017" id="Fill-19" fill="#D2DFDC"></path>
                    <path d="M205.268172,156.68975 L125.111645,156.68975 C121.485102,156.68975 118.517293,153.726417 118.517293,150.10275 C118.517293,146.481417 121.485102,143.516917 125.111645,143.516917 L205.268172,143.516917 C208.894715,143.516917 211.862523,146.481417 211.862523,150.10275 C211.862523,153.726417 208.894715,156.68975 205.268172,156.68975" id="Fill-21" fill="#D2DFDC"></path>
                    <path d="M158.184432,72.1098 L94.2416465,72.1098 C91.3719473,72.1098 89.0231621,69.7648 89.0231621,66.8983 C89.0231621,64.0318 91.3719473,61.6856333 94.2416465,61.6856333 L158.184432,61.6856333 C161.054131,61.6856333 163.401748,64.0318 163.401748,66.8983 C163.401748,69.7648 161.054131,72.1098 158.184432,72.1098" id="Fill-23" fill="#D2DFDC"></path>
                    <path d="M237.877859,94.49405 C237.877859,110.021217 226.992391,122.607217 213.563086,122.607217 C200.133781,122.607217 189.245977,110.021217 189.245977,94.49405 C189.245977,78.96805 200.133781,66.3808833 213.563086,66.3808833 C226.992391,66.3808833 237.877859,78.96805 237.877859,94.49405" id="Fill-25" fill="#F4F4F4"></path>
                    <path d="M211.191292,106.840883 L178.809358,106.840883 C171.542257,106.840883 165.593792,100.89905 165.593792,93.64005 C165.593792,86.3787167 171.542257,80.4368833 178.809358,80.4368833 L211.191292,80.4368833 C218.460729,80.4368833 224.406858,86.3787167 224.406858,93.64005 C224.406858,100.89905 218.460729,106.840883 211.191292,106.840883" id="Fill-27" fill="#2F9CA2"></path>
                    <path d="M79.3568191,230.660267 C79.101034,232.298267 78.800866,233.884933 78.616327,235.483267 C78.3441902,237.8481 77.344409,239.729933 75.3483504,241.1031 C74.4782137,241.7016 73.6921707,242.4436 72.9493426,243.198433 C72.4681395,243.688433 72.6643582,244.086267 73.346452,244.2216 C73.4772645,244.247267 73.6127488,244.248433 73.7458973,244.251933 C75.211698,244.2881 76.6786668,244.349933 78.1456355,244.3511 C88.3968973,244.360433 98.649327,244.360433 108.901757,244.3511 C110.367557,244.349933 111.835694,244.314933 113.300327,244.240267 C113.683421,244.220433 114.054835,243.9976 114.430921,243.866933 C114.24171,243.498267 114.134257,243.0386 113.846936,242.777267 C113.032862,242.036433 112.152214,241.3656 111.283245,240.685433 C109.973952,239.6611 109.088632,238.3591 108.78496,236.7211 C108.449753,234.9116 108.154257,233.090433 107.918327,231.2646 C107.845913,230.709267 107.626335,230.6521 107.166155,230.653267 C98.1143973,230.663767 89.0626395,230.660267 80.0108816,230.660267 L79.3568191,230.660267 Z" id="Fill-29" fill="#BCBBBB"></path>
                    <mask id="mask-2" fill="white">
                        <use xlink:href="#path-1"></use>
                    </mask>
                    <g id="Clip-32"></g>
                    <path d="M33.2345508,208.692167 L153.958137,208.692167 L153.958137,142.947 L33.2345508,142.947 L33.2345508,208.692167 Z M24.9536523,139.3665 C25.0903047,138.934833 25.1954219,138.490333 25.3671133,138.0715 C26.236082,135.945833 28.2111172,134.6835 30.6451641,134.6835 L115.287859,134.6835 L156.522996,134.6835 C159.858715,134.6835 162.215676,137.026167 162.215676,140.3465 L162.215676,219.524667 C162.215676,222.811167 159.851707,225.1725 156.563875,225.1725 C114.623285,225.1725 72.6826953,225.162 30.7432734,225.192333 C27.6224609,225.194667 25.4021523,222.993167 25.0494258,220.738 C25.042418,220.689 24.9886914,220.648167 24.9536523,220.603833 L24.9536523,139.3665 Z" id="Fill-31" fill="#BCBBBB" mask="url(#mask-2)"></path>
                    <path d="M79.3568191,230.660267 L80.0108816,230.660267 C89.0626395,230.660267 98.1143973,230.663767 107.166155,230.653267 C107.626335,230.6521 107.845913,230.709267 107.918327,231.2646 C108.154257,233.090433 108.449753,234.9116 108.78496,236.7211 C109.088632,238.3591 109.973952,239.6611 111.283245,240.685433 C112.152214,241.3656 113.032862,242.036433 113.846936,242.777267 C114.134257,243.0386 114.24171,243.498267 114.430921,243.866933 C114.054835,243.9976 113.683421,244.220433 113.300327,244.240267 C111.835694,244.314933 110.367557,244.349933 108.901757,244.3511 C98.649327,244.360433 88.3968973,244.360433 78.1456355,244.3511 C76.6786668,244.349933 75.211698,244.2881 73.7458973,244.251933 C73.6127488,244.248433 73.4772645,244.247267 73.346452,244.2216 C72.6643582,244.086267 72.4681395,243.688433 72.9493426,243.198433 C73.6921707,242.4436 74.4782137,241.7016 75.3483504,241.1031 C77.344409,239.729933 78.3441902,237.8481 78.616327,235.483267 C78.800866,233.884933 79.101034,232.298267 79.3568191,230.660267" id="Fill-33" fill="#BCBBBB" mask="url(#mask-2)"></path>
                    <path d="M175.879625,92.3328 C175.646032,108.295133 189.117383,121.1798 204.734293,121.2113 C220.337188,121.2428 233.694079,108.045467 233.684735,92.3304667 C233.677727,76.6971333 220.751817,63.4029667 204.768164,63.4204667 C188.845246,63.4368 175.671727,76.4218 175.879625,92.3328 M237.147762,116.600633 C237.313614,116.740633 237.471289,116.8538 237.606774,116.989133 C247.226164,126.5943 256.840883,136.2053 266.466114,145.8058 C267.743871,147.080967 268.352383,148.580133 268.279969,150.384967 C268.173684,153.065967 265.602985,155.648967 262.918993,155.765633 C261.094625,155.844967 259.582106,155.228967 258.293836,153.940967 C248.682621,144.324133 239.062063,134.7213 229.445008,125.111467 C229.310692,124.976133 229.212582,124.8058 229.095786,124.6518 C219.204258,132.044967 208.197321,134.120467 196.340102,131.859467 C186.075993,129.9018 178.137309,124.171133 171.910868,115.956633 C160.82334,101.3278 161.426012,77.5943 176.776625,62.9538 C191.683411,48.7333 215.691008,48.5699667 230.192508,60.8654667 C238.416176,67.8374667 243.629989,76.4463 244.904243,87.2823 C246.05586,97.0893 243.821536,108.0408 237.147762,116.600633" id="Fill-34" fill="#BCBBBB" mask="url(#mask-2)"></path>
                    <polygon id="Fill-35" fill="#FEFEFE" mask="url(#mask-2)" points="33.2345508 208.692167 153.958137 208.692167 153.958137 142.947 33.2345508 142.947"></polygon>
                    <path d="M118.749602,200.2973 L109.992172,200.2973 L109.992172,158.1678 L106.364461,158.1678 C109.032102,155.501967 111.697407,152.838467 114.388407,150.150467 C117.03152,152.766133 119.727192,155.431967 122.473086,158.1503 L118.749602,158.1503 L118.749602,200.2973 Z" id="Fill-36" fill="#74BF43" mask="url(#mask-2)"></path>
                    <polygon id="Fill-37" fill="#74BF43" mask="url(#mask-2)" points="98.5555391 200.299167 107.263914 200.299167 107.263914 162.19 98.5555391 162.19"></polygon>
                    <polygon id="Fill-38" fill="#74BF43" mask="url(#mask-2)" points="87.0872539 200.295667 95.8189883 200.295667 95.8189883 166.234833 87.0872539 166.234833"></polygon>
                    <polygon id="Fill-39" fill="#74BF43" mask="url(#mask-2)" points="75.6528398 200.292167 84.3530391 200.292167 84.3530391 170.283167 75.6528398 170.283167"></polygon>
                    <polygon id="Fill-40" fill="#74BF43" mask="url(#mask-2)" points="64.1822188 200.292167 72.9151211 200.292167 72.9151211 174.344333 64.1822188 174.344333"></polygon>
                    <path d="M294.058908,139.509883 L272.16183,139.509883 C269.969553,139.509883 268.176721,137.71905 268.176721,135.529217 C268.176721,133.339383 269.969553,131.54855 272.16183,131.54855 L294.058908,131.54855 C296.251186,131.54855 298.044018,133.339383 298.044018,135.529217 C298.044018,137.71905 296.251186,139.509883 294.058908,139.509883" id="Fill-41" fill="#FFCC05" mask="url(#mask-2)"></path>
                    <path d="M259.481777,230.157783 L228.455855,230.157783 C228.455855,227.860617 228.300516,225.603117 228.49323,223.373617 C228.538781,222.841617 228.652074,222.35395 228.795734,221.886117 C230.370156,224.008283 236.551047,225.593783 243.950129,225.593783 C251.414617,225.593783 257.643395,223.98145 259.151242,221.831283 C259.326438,222.372617 259.433891,222.954783 259.460754,223.58245 C259.555359,225.75595 259.481777,227.93645 259.481777,230.157783 M224.494105,234.11045 L263.410824,234.11045 C263.427176,234.01945 263.450535,233.954117 263.450535,233.887617 C263.426008,230.227783 263.485574,226.563283 263.343082,222.90695 C263.233293,220.08595 261.955535,217.753783 259.667484,216.04695 C257.311691,214.288783 254.5985,213.48145 251.699602,213.441783 C246.656313,213.374117 241.610688,213.42545 236.56623,213.42195 C234.55382,213.420783 232.611488,213.798783 230.762594,214.578117 C226.88377,216.21145 224.657621,219.09895 224.508121,223.34445 C224.383148,226.86195 224.454395,230.38645 224.441547,233.908617 C224.441547,233.97395 224.47425,234.038117 224.494105,234.11045" id="Fill-42" fill="#2F9CA2" mask="url(#mask-2)"></path>
                    <path d="M243.998249,209.11905 C250.225859,209.09805 255.263308,204.039383 255.245788,197.822217 C255.227101,191.58405 250.139429,186.517217 243.912987,186.535883 C237.697058,186.55455 232.651433,191.61205 232.644425,197.829217 C232.637417,204.102383 237.702898,209.14005 243.998249,209.11905" id="Fill-43" fill="#2F9CA2" mask="url(#mask-2)"></path>
                    <path d="M193.110668,225.428467 C196.379813,228.9168 199.61859,232.373633 202.888903,235.863133 C205.848536,232.3398 208.767289,228.863133 211.632317,225.452967 C212.385657,226.1168 213.086438,226.735133 213.802403,227.365133 C214.617645,224.155633 215.445735,220.9018 216.304192,217.525467 C213.072422,218.4378 209.983145,219.308133 206.814446,220.202967 C207.574793,221.0033 208.266231,221.7313 208.97402,222.477967 C206.88102,224.9723 204.823059,227.424633 202.728891,229.920133 C199.448067,226.4213 196.209289,222.9668 192.945985,219.485467 C188.932844,224.2688 184.958246,229.0043 180.959121,233.768967 C181.985766,234.627633 182.969196,235.4513 183.982993,236.297133 C187.046575,232.650133 190.070446,229.048633 193.110668,225.428467" id="Fill-44" fill="#D19595" mask="url(#mask-2)"></path>
                    <polygon id="Fill-45" fill="#2F9CA2" mask="url(#mask-2)" points="226.171309 231.312667 261.201027 231.312667 261.201027 221.597833 226.171309 221.597833"></polygon>
                    <polygon id="Fill-46" fill="#FEFEFE" mask="url(#mask-2)" points="68.5485531 50.4558833 90.9233305 50.4558833 93.9997602 26.16355 94.864057 15.96105 68.5485531 20.0898833"></polygon>
                    <path d="M73.9025219,50.4558833 L90.9233305,50.4558833 C92.4977523,50.4558833 93.7848539,49.16905 93.7848539,47.59755 L93.7848539,27.68955 L73.9025219,50.4558833 Z" id="Fill-47" fill="#D2D4D5" mask="url(#mask-2)"></path>
                    <path d="M132.100186,122.776617 L94.6048848,122.776617 C92.4137754,122.776617 90.6209434,120.985783 90.6209434,118.79595 C90.6209434,116.606117 92.4137754,114.815283 94.6048848,114.815283 L132.100186,114.815283 C134.292463,114.815283 136.085295,116.606117 136.085295,118.79595 C136.085295,120.985783 134.292463,122.776617 132.100186,122.776617" id="Fill-48" fill="#D19595" mask="url(#mask-2)"></path>
                    <polygon id="Fill-49" fill="#929292" mask="url(#mask-2)" points="33.2345508 211.352167 153.958137 211.352167 153.958137 208.692167 33.2345508 208.692167"></polygon>
                    <path d="M199.020006,211.718967 L199.020006,200.898133 L209.851748,200.898133 L209.851748,201.407967 C209.847077,201.4488 209.837733,201.489633 209.834229,201.531633 C209.81087,201.7778 209.79919,202.0263 209.767655,202.272467 C209.654362,203.152133 209.445295,204.008467 209.11476,204.832133 C208.093955,207.3743 206.365362,209.2818 203.931315,210.542967 C202.673412,211.195133 201.331416,211.568467 199.919342,211.681633 C199.78853,211.692133 199.658885,211.706133 199.530409,211.718967 L199.020006,211.718967 Z" id="Fill-50" fill="#74BF43" mask="url(#mask-2)"></path>
                    <path d="M197.139226,209.831183 C191.724523,209.886017 186.722113,205.659183 186.326171,199.744183 C185.897527,193.33685 191.070461,188.033183 197.410195,188.197683 C203.457937,188.355183 207.999,193.348517 207.965129,199.011517 L197.139226,199.011517 L197.139226,209.831183 Z" id="Fill-51" fill="#2F9CA2" mask="url(#mask-2)"></path>
                </g>
            </g>
        </g>
    </g>
</svg>