<?xml version="1.0" encoding="UTF-8" standalone="no"?>
<svg width="54px" height="50px" viewBox="0 0 54 50" version="1.1" xmlns="http://www.w3.org/2000/svg" xmlns:xlink="http://www.w3.org/1999/xlink">
    <!-- Generator: sketchtool 3.7 (28169) - http://www.bohemiancoding.com/sketch -->
    <title>0E59D651-31F8-4D55-AE29-C7DFA02FB734</title>
    <desc>Created with sketchtool.</desc>
    <defs></defs>
    <g id="Desktop" stroke="none" stroke-width="1" fill="none" fill-rule="evenodd">
        <g id="App" transform="translate(-155.000000, -770.000000)">
            <g id="app" transform="translate(155.000000, 722.000000)">
                <g id="eng-hindi" transform="translate(0.000000, 49.000000)">
                    <path d="M6.90039577,25.1414068 L9.08166465,25.1414068 L9.08166465,14.1619139 L6.90039577,14.1619139 L6.90039577,18.5632446 L2.86586836,18.5632446 L2.86586836,14.1619139 L0.701,14.1619139 L0.701,25.1414068 L2.86586836,25.1414068 L2.86586836,20.2316191 L6.90039577,20.2316191 L6.90039577,25.1414068 Z M18.7743707,20.7400761 C18.7743707,18.0865662 17.3803267,16.4976382 14.9530501,16.4976382 C12.4929724,16.4976382 11.0989284,18.4361304 11.0989284,20.9943045 C11.0989284,23.6478144 12.5421739,25.379746 15.2318589,25.379746 C16.5439003,25.379746 17.5935334,24.9189568 18.4463604,24.251607 L17.5771329,23.0916896 C16.8227091,23.6001465 16.1830889,23.8384858 15.4122646,23.8384858 C14.2642283,23.8384858 13.4442024,23.2823609 13.2801972,21.5663186 L18.7251692,21.5663186 C18.7415697,21.3438687 18.7743707,21.0101938 18.7743707,20.7400761 L18.7743707,20.7400761 Z M16.691505,20.2475084 L13.2801972,20.2475084 C13.3950009,18.5791339 14.0182205,17.9435627 15.0022516,17.9435627 C16.1830889,17.9435627 16.691505,18.7698053 16.691505,20.1521727 L16.691505,20.2475084 Z M22.7596966,25.379746 C23.3009137,25.379746 23.7929292,25.2526317 24.1537406,25.0937389 L23.7109266,23.6637037 C23.563322,23.7113715 23.4157173,23.7431501 23.2189111,23.7431501 C22.8745002,23.7431501 22.7268956,23.5524787 22.7268956,23.1552467 L22.7268956,13.145 L20.6276293,13.3674499 L20.6276293,23.2188038 C20.6276293,24.6011712 21.4312546,25.379746 22.7596966,25.379746 L22.7596966,25.379746 Z M27.5978494,25.379746 C28.1390665,25.379746 28.631082,25.2526317 28.9918934,25.0937389 L28.5490794,23.6637037 C28.4014748,23.7113715 28.2538701,23.7431501 28.0570639,23.7431501 C27.712653,23.7431501 27.5650483,23.5524787 27.5650483,23.1552467 L27.5650483,13.145 L25.465782,13.3674499 L25.465782,23.2188038 C25.465782,24.6011712 26.2694074,25.379746 27.5978494,25.379746 L27.5978494,25.379746 Z M33.9284493,16.4976382 C31.353568,16.4976382 29.8283198,18.2931269 29.8283198,20.9307474 C29.8283198,23.6954822 31.353568,25.379746 33.9120488,25.379746 C36.4705296,25.379746 37.9957777,23.5842573 37.9957777,20.9307474 C37.9957777,18.1819019 36.4869301,16.4976382 33.9284493,16.4976382 L33.9284493,16.4976382 Z M33.9284493,18.0388984 C35.1420876,18.0388984 35.7817078,18.9286981 35.7817078,20.9307474 C35.7817078,22.9327968 35.1420876,23.8384858 33.9120488,23.8384858 C32.6820099,23.8384858 32.0423897,22.948686 32.0423897,20.9307474 C32.0423897,18.9445874 32.6984104,18.0388984 33.9284493,18.0388984 L33.9284493,18.0388984 Z" id="Hello" fill="#BDBDBD"></path>
                    <path d="M14.4528445,36.3064408 L14.4528445,34.6860232 L17.5600371,34.6860232 L17.5600371,40.0317309 L19.1303387,40.0317309 L19.1303387,30.4595731 L21.0681578,30.4595731 L21.0681578,29.1732622 L11.496,29.1732622 L11.496,30.4595731 L17.5600371,30.4595731 L17.5600371,33.2994803 L13.4004084,33.2994803 L12.2644455,34.1514524 C12.2644455,35.3375313 12.8491323,36.2396195 13.5841671,36.6572529 L14.4528445,36.3064408 Z M28.9363712,40.0317309 L28.9363712,30.4595731 L30.8908956,30.4595731 L30.8908956,29.1732622 L20.2663016,29.1732622 L20.2663016,30.4595731 L22.6217541,30.4595731 L22.6217541,34.2683898 L21.7697819,34.9031926 C21.7864872,35.6549327 22.1874153,36.7407796 22.8890394,37.308761 L24.1419397,37.308761 L24.1419397,35.6048167 L27.3827749,35.6048167 L27.3827749,40.0317309 L28.9363712,40.0317309 Z M27.3827749,30.4595731 L27.3827749,34.2015684 L24.1753503,34.2015684 L24.1753503,30.4595731 L27.3827749,30.4595731 Z M37.3558608,34.2516845 C36.82129,34.2516845 36.2700139,34.1848631 35.8356752,34.0512204 C35.8690858,33.8841671 35.8857912,33.7004084 35.8857912,33.4999443 L35.8857912,30.4595731 L43.971174,30.4595731 L43.971174,32.5477401 L41.5321949,32.5477401 C40.4129374,32.5477401 39.3772065,33.0656056 38.8259304,34.0345151 C38.408297,34.1848631 37.9071369,34.2516845 37.3558608,34.2516845 L37.3558608,34.2516845 Z M33.3799907,35.621522 C33.5637494,35.6549327 33.8310348,35.6382274 33.9813828,35.621522 C34.4157216,35.571406 34.833355,35.4377633 35.1507564,35.1871833 C35.7521485,35.4878794 36.6041206,35.6716381 37.4895035,35.6716381 C37.8403155,35.6716381 38.1577169,35.6549327 38.4417077,35.6048167 L38.4417077,35.6883434 C38.4417077,37.7263944 39.5609652,39.2799907 40.7804548,40.1820789 L41.983239,39.2131694 C40.8973921,38.4280186 40.0621253,37.2753503 40.0621253,35.7217541 C40.0621253,34.5356752 40.7971601,33.9342831 41.832891,33.9342831 L43.971174,33.9342831 L43.971174,40.0317309 L45.5414756,40.0317309 L45.5414756,30.4595731 L47.496,30.4595731 L47.496,29.1732622 L30.0723341,29.1732622 L30.0723341,30.4595731 L34.3154896,30.4595731 L34.3154896,33.3997123 C34.3154896,34.1180418 33.9479722,34.4187378 33.3298747,34.4187378 C32.6282506,34.4187378 32.2106172,34.0178097 31.8765104,33.6001763 L30.6904316,34.5523805 L35.1173457,40.2489002 L36.4036566,39.4303387 L34.5827749,37.0915916 C34.0649095,36.4400835 33.7308028,36.0725661 33.3632854,35.6716381 L33.3799907,35.621522 Z M45.4412436,29.2400835 L41.6491323,24.596 L39.8616613,24.9969281 L41.2314988,26.583935 C41.9999443,27.4526125 43.2027285,28.6721021 44.071406,29.2901995 L44.1716381,29.3570209 L45.4412436,29.2400835 Z" id="नमस्ते" fill="#BDBDBD"></path>
                    <polyline id="Path-3208" stroke="#BDBDBD" stroke-width="2" points="17.5039062 10.0351562 17.5039062 0.8515625 52.5721536 0.8515625 52.5721536 47.7585198 18.8200046 47.7585198"></polyline>
                </g>
            </g>
        </g>
    </g>
</svg>