<?xml version="1.0" encoding="UTF-8" standalone="no"?>
<svg width="100px" height="66px" viewBox="0 0 100 66" version="1.1" xmlns="http://www.w3.org/2000/svg" xmlns:xlink="http://www.w3.org/1999/xlink">
    <!-- Generator: sketchtool 3.7 (28169) - http://www.bohemiancoding.com/sketch -->
    <title>95DCE218-6EC4-4766-83C2-54A367360A60</title>
    <desc>Created with sketchtool.</desc>
    <defs></defs>
    <g id="Desktop" stroke="none" stroke-width="1" fill="none" fill-rule="evenodd">
        <g id="Home" transform="translate(-836.000000, -1444.000000)">
            <g id="extract-info" transform="translate(836.000000, 1444.000000)">
                <path d="M2,46.7 C3.1,46.7 4,45.8 4,44.7 L4,29.7 C4,28.6 3.1,27.7 2,27.7 C0.9,27.7 0,28.6 0,29.7 L0,44.7 C0,45.8 0.9,46.7 2,46.7 Z M10,22.2 L10,52.2 C10,53.3 10.9,54.2 12,54.2 C13.1,54.2 14,53.3 14,52.2 L14,22.2 C14,21.1 13.1,20.2 12,20.2 C10.9,20.2 10,21.1 10,22.2 Z M19.5,11 L19.5,63.5 C19.5,64.6 20.4,65.5 21.5,65.5 C22.6,65.5 23.5,64.6 23.5,63.5 L23.5,11 C23.5,9.9 22.6,9 21.5,9 C20.4,9 19.5,9.8 19.5,11 Z M31,22.2 L31,52.2 C31,53.3 31.9,54.2 33,54.2 C34.1,54.2 35,53.3 35,52.2 L35,22.2 C35,21.1 34.1,20.2 33,20.2 C31.9,20.2 31,21.1 31,22.2 Z M40,29.7 L40,44.7 C40,45.8 40.9,46.7 42,46.7 C43.1,46.7 44,45.8 44,44.7 L44,29.7 C44,28.6 43.1,27.7 42,27.7 C40.9,27.7 40,28.6 40,29.7 Z M50.5,22.2 L50.5,52.2 C50.5,53.3 51.4,54.2 52.5,54.2 C53.6,54.2 54.5,53.3 54.5,52.2 L54.5,22.2 C54.5,21.1 53.6,20.2 52.5,20.2 C51.4,20.2 50.5,21.1 50.5,22.2 Z M60.1,12.2 L60.1,62.2 C60.1,63.3 61,64.2 62.1,64.2 C63.2,64.2 64.1,63.3 64.1,62.2 L64.1,12.2 C64.1,11.1 63.2,10.2 62.1,10.2 C61,10.2 60.1,11.1 60.1,12.2 Z M71.5,20.2 C70.4,20.2 69.5,21.1 69.5,22.2 L69.5,52.2 C69.5,53.3 70.4,54.2 71.5,54.2 C72.6,54.2 73.5,53.3 73.5,52.2 L73.5,22.2 C73.5,21.1 72.6,20.2 71.5,20.2 Z M82.5,27.7 C81.4,27.7 80.5,28.6 80.5,29.7 L80.5,44.7 C80.5,45.8 81.4,46.7 82.5,46.7 C83.6,46.7 84.5,45.8 84.5,44.7 L84.5,29.7 C84.5,28.6 83.6,27.7 82.5,27.7 Z" id="wave" fill="#D3DFDE"></path>
                <path d="M59.6007329,27.7281906 L53.6229302,27.7281906 L53.6229302,43.0274637 C53.6229302,44.6694621 54.9606703,46 56.6115569,46 L71.9936447,46 L71.9936447,40.0543809 L59.6007329,40.0543809 L59.6007329,27.7281906 Z M93.8941251,40.0543809 L81.5006639,40.0543809 L81.5006639,46 L96.8827518,46 C98.5336384,46 99.8713784,44.6689157 99.8713784,43.0274637 L99.8713784,27.7281906 L93.8941251,27.7281906 L93.8941251,40.0543809 Z M96.8827518,0 L96.877258,0 L81.5006639,0 L81.5006639,5.94561912 L93.8941251,5.94561912 L93.8941251,18.2718094 L99.8719278,18.2718094 L99.8719278,2.97308277 C99.8719278,1.33108429 98.5336384,0 96.8827518,0 Z M53.6229302,2.97308277 L53.6229302,2.97854699 L53.6229302,18.2723558 L59.6012823,18.2723558 L59.6012823,5.94561912 L71.9941941,5.94561912 L71.9941941,0 L56.6121063,0 C54.9612197,0 53.6229302,1.33108429 53.6229302,2.97308277 Z" id="tgt" fill="#BDBDBD"></path>
            </g>
        </g>
    </g>
</svg>