<?xml version="1.0" encoding="UTF-8" standalone="no"?>
<svg width="54px" height="37px" viewBox="0 0 54 37" version="1.1" xmlns="http://www.w3.org/2000/svg" xmlns:xlink="http://www.w3.org/1999/xlink">
    <!-- Generator: sketchtool 3.7 (28169) - http://www.bohemiancoding.com/sketch -->
    <title>DC3063AC-FDF3-4FC4-BB2F-38CAF010D82D</title>
    <desc>Created with sketchtool.</desc>
    <defs></defs>
    <g id="Desktop" stroke="none" stroke-width="1" fill="none" fill-rule="evenodd">
        <g id="Home" transform="translate(-553.000000, -1453.000000)" fill="#D3DFDE">
            <g id="set-alerts" transform="translate(553.000000, 1453.000000)">
                <g id="Group">
                    <polygon id="Shape" points="0.108 0 0 0 0 6.16666667 0.108 6.16666667 10.2766154 6.16666667 10.3846154 6.16666667 10.3846154 0 10.2766154 0"></polygon>
                    <polygon id="Shape" points="0.108 10.2777778 0 10.2777778 0 16.4444444 0.108 16.4444444 10.2766154 16.4444444 10.3846154 16.4444444 10.3846154 10.2777778 10.2766154 10.2777778"></polygon>
                    <polygon id="Shape" points="0.108 20.5555556 0 20.5555556 0 26.7222222 0.108 26.7222222 10.2766154 26.7222222 10.3846154 26.7222222 10.3846154 20.5555556 10.2766154 20.5555556"></polygon>
                    <polygon id="Shape" points="0.108 30.8333333 0 30.8333333 0 37 0.108 37 10.2766154 37 10.3846154 37 10.3846154 30.8333333 10.2766154 30.8333333"></polygon>
                    <polygon id="Shape" points="14.5384615 10.2777778 14.5384615 16.4444444 24.8150769 16.4444444 24.9230769 16.4444444 24.9230769 10.2777778 24.8150769 10.2777778"></polygon>
                    <polygon id="Shape" points="14.5384615 20.5555556 14.5384615 26.7222222 24.8150769 26.7222222 24.9230769 26.7222222 24.9230769 20.5555556 24.8150769 20.5555556"></polygon>
                    <polygon id="Shape" points="14.5384615 30.8333333 14.5384615 37 24.8150769 37 24.9230769 37 24.9230769 30.8333333 24.8150769 30.8333333"></polygon>
                    <polygon id="Shape" points="29.0769231 20.5555556 29.0769231 26.7222222 39.3535385 26.7222222 39.4615385 26.7222222 39.4615385 20.5555556 39.3535385 20.5555556"></polygon>
                    <polygon id="Shape" points="29.0769231 30.8333333 29.0769231 37 39.3535385 37 39.4615385 37 39.4615385 30.8333333 39.3535385 30.8333333"></polygon>
                    <rect id="Rectangle-path" x="43.6153846" y="10.2777778" width="10.3846154" height="6.16666667"></rect>
                    <rect id="Rectangle-path" x="43.6153846" y="20.5555556" width="10.3846154" height="6.16666667"></rect>
                    <rect id="Rectangle-path" x="43.6153846" y="30.8333333" width="10.3846154" height="6.16666667"></rect>
                </g>
            </g>
        </g>
    </g>
</svg>