<svg id="Layer_1" data-name="Layer 1" xmlns="http://www.w3.org/2000/svg" viewBox="0 0 252.65 119"><defs><style>.cls-1{fill:#bdbdbd;}.cls-2{fill:#d2dfdd;}</style></defs><title>icon_v1</title><g id="Desktop"><g id="Home"><g id="set-alerts"><g id="noun_11222" data-name="noun 11222"><path id="Shape" class="cls-1" d="M174.23,41.51c-0.87-3.89,1.87-7.28,10.35-12.31s13.34-5.53,16.08-2.89L205.4,33A48.3,48.3,0,0,0,177.22,49l-3-7.54h0Z"/><path id="Shape-2" data-name="Shape" class="cls-1" d="M212.13,37.37a40.82,40.82,0,1,0,40.52,40.82,40.59,40.59,0,0,0-40.52-40.82h0Zm0,72.59a31.78,31.78,0,1,1,31.54-31.77A31.62,31.62,0,0,1,212.13,110h0Z"/><path id="Shape-3" data-name="Shape" class="cls-1" d="M200.41,83.46l7.48-6.53-0.12-19.84c0.62-5.53,9.47-4.9,9.23-.25V76.93c0,4.14-.5,4.52-2,5.78l-8.85,7.91c-4.36,3.39-10.22-3.14-5.74-7.16h0Z"/><path id="Shape-4" data-name="Shape" class="cls-1" d="M249.91,41.64c0.75-3.89-1.75-7.16-10.47-12.31s-13.34-5.53-16-2.89l-4.86,6.65a48.62,48.62,0,0,1,28.3,16.08l3-7.54h0Z"/></g></g></g></g><rect class="cls-2" width="31.5" height="19"/><rect class="cls-2" y="31" width="31.5" height="19"/><rect class="cls-2" y="62" width="31.5" height="19"/><rect class="cls-2" y="93" width="31.5" height="19"/><rect class="cls-2" x="43" y="31" width="31.5" height="19"/><rect class="cls-2" x="43" y="62" width="31.5" height="19"/><rect class="cls-2" x="43" y="93" width="31.5" height="19"/><rect class="cls-2" x="131" y="31" width="31.5" height="19"/><rect class="cls-2" x="131" y="62" width="31.5" height="19"/><rect class="cls-2" x="131" y="93" width="31.5" height="19"/><rect class="cls-2" x="87" y="62" width="31.5" height="19"/><rect class="cls-2" x="87" y="93" width="31.5" height="19"/></svg>