<?xml version="1.0" encoding="UTF-8" standalone="no"?>
<svg width="14px" height="20px" viewBox="0 0 14 20" version="1.1" xmlns="http://www.w3.org/2000/svg" xmlns:xlink="http://www.w3.org/1999/xlink">
    <!-- Generator: sketchtool 3.7 (28169) - http://www.bohemiancoding.com/sketch -->
    <title>B314677D-CE5C-48E2-8876-1830664A0A90</title>
    <desc>Created with sketchtool.</desc>
    <defs></defs>
    <g id="Desktop" stroke="none" stroke-width="1" fill="none" fill-rule="evenodd">
        <g id="API" transform="translate(-558.000000, -2686.000000)" fill="#BDBDBD">
            <g id="footer" transform="translate(0.000000, 2681.000000)">
                <g id="Group-6">
                    <g transform="translate(475.000000, 0.000000)">
                        <g id="Group-4" transform="translate(83.000000, 5.000000)">
                            <path d="M7,0 C3.1,0 0,3.1 0,7 C0,10.9 7,20 7,20 C7,20 14,10.9 14,7 C14,3.1 10.9,0 7,0 L7,0 Z M7,10 C5.3,10 4,8.7 4,7 C4,5.3 5.3,4 7,4 C8.7,4 10,5.3 10,7 C10,8.7 8.7,10 7,10 L7,10 Z" id="Shape"></path>
                        </g>
                    </g>
                </g>
            </g>
        </g>
    </g>
</svg>