<svg id="Layer_1" data-name="Layer 1" xmlns="http://www.w3.org/2000/svg" xmlns:xlink="http://www.w3.org/1999/xlink" viewBox="0 0 75 74.68"><defs><style>.cls-1{stroke-miterlimit:10;stroke-width:2px;fill:url(#linear-gradient);stroke:url(#linear-gradient-2);}.cls-2{fill:#737373;}</style><linearGradient id="linear-gradient" x1="37.5" y1="69.72" x2="37.5" y2="3.07" gradientUnits="userSpaceOnUse"><stop offset="0" stop-color="#d2dfdd"/><stop offset="1" stop-color="#ebf1f0"/></linearGradient><linearGradient id="linear-gradient-2" x1="37.5" y1="74.68" x2="37.5" gradientUnits="userSpaceOnUse"><stop offset="0" stop-color="#a0b1b0"/><stop offset="1" stop-color="#d8d9d9"/></linearGradient></defs><title>mic</title><ellipse class="cls-1" cx="37.5" cy="37.34" rx="36.5" ry="36.34"/><g id="Desktop"><g id="API"><g id="demo"><g id="Group-6"><g id="Group-3"><path id="Shape" class="cls-2" d="M37.5,22a5.09,5.09,0,0,0-5.17,5.17V37.5a5.17,5.17,0,1,0,10.33,0V27.17A5.09,5.09,0,0,0,37.5,22h0Zm9,12.92c-1.29,0-1.29,0-1.29,1.29V37.5a7.46,7.46,0,0,1-7.75,7.75,7.46,7.46,0,0,1-7.75-7.75V36.21c0-1.29,0-1.29-1.29-1.29s-1.29,0-1.29,1.29V37.5c0,5.17,3.23,9,9,10.33v3.87c0,1.29,0,1.29,1.29,1.29s1.29,0,1.29-1.29V47.83c5.81-1.29,9-5.17,9-10.33V36.21c0-1.29,0-1.29-1.29-1.29h0Z" transform="translate(0 -0.16)"/></g></g></g></g></g></svg>