<?xml version="1.0" encoding="UTF-8" standalone="no"?>
<svg width="38px" height="44px" viewBox="0 0 38 44" version="1.1" xmlns="http://www.w3.org/2000/svg" xmlns:xlink="http://www.w3.org/1999/xlink">
    <!-- Generator: sketchtool 3.7 (28169) - http://www.bohemiancoding.com/sketch -->
    <title>A6C02A75-86E8-4207-8EA2-522E2825EE73</title>
    <desc>Created with sketchtool.</desc>
    <defs></defs>
    <g id="Desktop" stroke="none" stroke-width="1" fill="none" fill-rule="evenodd">
        <g id="Home" transform="translate(-614.000000, -1456.000000)" fill="#BDBDBD">
            <g id="set-alerts" transform="translate(553.000000, 1453.000000)">
                <g id="noun_11222" transform="translate(61.000000, 3.000000)">
                    <path d="M1.22255172,7.81396 C0.815034483,5.99588 2.09611494,4.41276 6.05466667,2.06668 C10.0717471,-0.22044 12.284046,-0.51392 13.5646897,0.71808 L15.7769885,3.82624 C10.5373563,4.76432 6.05466667,7.40344 2.61937931,11.33308 L1.22255172,7.81396 L1.22255172,7.81396 Z" id="Shape"></path>
                    <path d="M18.9209425,5.87884 C8.44167816,5.87884 0,14.38272 0,24.9392 C0,35.4376 8.44167816,44 18.9209425,44 C29.3425517,44 37.8423218,35.4376 37.8423218,24.93964 C37.8423218,14.38272 29.3425517,5.87884 18.9209425,5.87884 L18.9209425,5.87884 Z M18.9209425,39.77732 C10.7701609,39.77732 4.19135632,33.15004 4.19135632,24.9392 C4.19135632,16.72836 10.7701609,10.10152 18.9209425,10.10152 C27.0717241,10.10152 33.6505287,16.7288 33.6505287,24.9392 C33.6505287,33.15004 27.0717241,39.77732 18.9209425,39.77732 L18.9209425,39.77732 Z" id="Shape"></path>
                    <path d="M13.4485057,27.40276 L16.9418851,24.35268 L16.8837931,15.08628 C17.1751264,12.50568 21.3083908,12.79916 21.1922069,14.9688 L21.1922069,24.35224 C21.1922069,26.28736 20.9594023,26.4638 20.2605517,27.05032 L16.1268506,30.745 C14.0888276,32.329 11.3528276,29.27892 13.4485057,27.40276 L13.4485057,27.40276 Z" id="Shape"></path>
                    <path d="M36.5616782,7.87292 C36.9111034,6.05484 35.7466437,4.5298 31.6714713,2.12564 C27.5962989,-0.22044 25.442092,-0.45496 24.2191034,0.77704 L21.9482759,3.88476 C27.2464368,4.82284 31.6710345,7.46196 35.1644138,11.3916 L36.5616782,7.87292 L36.5616782,7.87292 Z" id="Shape"></path>
                </g>
            </g>
        </g>
    </g>
</svg>