<?xml version="1.0" encoding="UTF-8" standalone="no"?>
<svg width="1440px" height="44px" viewBox="0 0 1440 44" version="1.1" xmlns="http://www.w3.org/2000/svg" xmlns:xlink="http://www.w3.org/1999/xlink">
    <!-- Generator: sketchtool 3.7 (28169) - http://www.bohemiancoding.com/sketch -->
    <title>98CD8B67-41CA-491E-86AB-3F48AD1784FF</title>
    <desc>Created with sketchtool.</desc>
    <defs></defs>
    <g id="Desktop" stroke="none" stroke-width="1" fill="none" fill-rule="evenodd" opacity="0.2">
        <g id="API" transform="translate(0.000000, -884.000000)" fill="#FFFFFF">
            <g id="demo" transform="translate(-4.000000, 378.000000)">
                <g id="Page-1" transform="translate(4.000000, 506.000000)">
                    <polygon id="Fill-1" points="0 43.8293952 9.3925 43.8293952 9.3925 21.3055857 0 21.3055857"></polygon>
                    <polygon id="Fill-2" points="12.4817409 43.8293952 21.8742409 43.8293952 21.8742409 24.0115857 12.4817409 24.0115857"></polygon>
                    <polygon id="Fill-3" points="24.9654944 43.8293952 34.3579944 43.8293952 34.3579944 18.667681 24.9654944 18.667681"></polygon>
                    <polygon id="Fill-4" points="37.4452228 43.8293952 46.8377228 43.8293952 46.8377228 13.4762048 37.4452228 13.4762048"></polygon>
                    <polygon id="Fill-5" points="49.9269638 43.8293952 59.3194638 43.8293952 59.3194638 15.4221571 49.9269638 15.4221571"></polygon>
                    <polygon id="Fill-6" points="62.4087047 43.8293952 71.8012047 43.8293952 71.8012047 5.82596667 62.4087047 5.82596667"></polygon>
                    <polygon id="Fill-7" points="74.8904457 43.8293952 84.2829457 43.8293952 84.2829457 8.07625238 74.8904457 8.07625238"></polygon>
                    <polygon id="Fill-8" points="87.3701741 43.8293952 96.7626741 43.8293952 96.7626741 1.43015714 87.3701741 1.43015714"></polygon>
                    <polygon id="Fill-9" points="99.8539276 43.8293952 109.246428 43.8293952 109.246428 2.68101429 99.8539276 2.68101429"></polygon>
                    <polygon id="Fill-10" points="112.333656 43.8293952 121.726156 43.8293952 121.726156 7.16272857 112.333656 7.16272857"></polygon>
                    <polygon id="Fill-11" points="124.817409 43.8293952 134.209909 43.8293952 134.209909 14.9041095 124.817409 14.9041095"></polygon>
                    <polygon id="Fill-12" points="137.29915 43.8293952 146.69165 43.8293952 146.69165 20.559681 137.29915 20.559681"></polygon>
                    <polygon id="Fill-13" points="149.780891 43.8293952 159.173391 43.8293952 159.173391 21.3380619 149.780891 21.3380619"></polygon>
                    <polygon id="Fill-14" points="162.262632 43.8293952 171.655132 43.8293952 171.655132 23.8733 162.262632 23.8733"></polygon>
                    <polygon id="Fill-15" points="174.742361 43.8293952 184.134861 43.8293952 184.134861 26.4085381 174.742361 26.4085381"></polygon>
                    <polygon id="Fill-16" points="187.224102 43.8293952 196.616602 43.8293952 196.616602 28.9437762 187.224102 28.9437762"></polygon>
                    <polygon id="Fill-17" points="1273.12148 43.8293952 1282.51398 43.8293952 1282.51398 21.3055857 1273.12148 21.3055857"></polygon>
                    <polygon id="Fill-18" points="1260.64376 43.8293952 1270.03425 43.8293952 1270.03425 24.0115857 1260.64376 24.0115857"></polygon>
                    <polygon id="Fill-19" points="1248.16202 43.8293952 1257.55452 43.8293952 1257.55452 18.667681 1248.16202 18.667681"></polygon>
                    <polygon id="Fill-20" points="1235.67827 43.8293952 1245.07077 43.8293952 1245.07077 13.4762048 1235.67827 13.4762048"></polygon>
                    <polygon id="Fill-21" points="1223.19653 43.8293952 1232.58903 43.8293952 1232.58903 15.4221571 1223.19653 15.4221571"></polygon>
                    <polygon id="Fill-22" points="1210.7168 43.8293952 1220.10728 43.8293952 1220.10728 5.82596667 1210.7168 5.82596667"></polygon>
                    <polygon id="Fill-23" points="1198.23506 43.8293952 1207.62554 43.8293952 1207.62554 8.07625238 1198.23506 8.07625238"></polygon>
                    <polygon id="Fill-24" points="1185.7513 43.8293952 1195.1438 43.8293952 1195.1438 1.43015714 1185.7513 1.43015714"></polygon>
                    <polygon id="Fill-25" points="1173.26956 43.8293952 1182.66206 43.8293952 1182.66206 2.68101429 1173.26956 2.68101429"></polygon>
                    <polygon id="Fill-26" points="1160.78983 43.8293952 1170.18032 43.8293952 1170.18032 3.93291905 1160.78983 3.93291905"></polygon>
                    <polygon id="Fill-27" points="1148.30809 43.8293952 1157.69858 43.8293952 1157.69858 14.9041095 1148.30809 14.9041095"></polygon>
                    <polygon id="Fill-28" points="1135.82635 43.8293952 1145.21885 43.8293952 1145.21885 20.559681 1135.82635 20.559681"></polygon>
                    <polygon id="Fill-29" points="1123.34461 43.8293952 1132.73711 43.8293952 1132.73711 21.3380619 1123.34461 21.3380619"></polygon>
                    <polygon id="Fill-30" points="1110.86287 43.8293952 1120.25537 43.8293952 1120.25537 23.8733 1110.86287 23.8733"></polygon>
                    <polygon id="Fill-31" points="1098.38314 43.8293952 1107.77363 43.8293952 1107.77363 26.4085381 1098.38314 26.4085381"></polygon>
                    <polygon id="Fill-32" points="1085.89939 43.8293952 1095.29189 43.8293952 1095.29189 28.9437762 1085.89939 28.9437762"></polygon>
                    <polygon id="Fill-33" points="199.705843 43.8293952 209.098343 43.8293952 209.098343 23.9827762 199.705843 23.9827762"></polygon>
                    <polygon id="Fill-34" points="212.187584 43.8293952 221.580084 43.8293952 221.580084 28.0574905 212.187584 28.0574905"></polygon>
                    <polygon id="Fill-35" points="224.669325 43.8293952 234.061825 43.8293952 234.061825 32.1311571 224.669325 32.1311571"></polygon>
                    <polygon id="Fill-36" points="237.151065 43.8293952 246.543565 43.8293952 246.543565 27.9113476 237.151065 27.9113476"></polygon>
                    <polygon id="Fill-37" points="249.632806 43.8293952 259.025306 43.8293952 259.025306 23.6920619 249.632806 23.6920619"></polygon>
                    <polygon id="Fill-38" points="262.114547 43.8293952 271.507047 43.8293952 271.507047 13.0938238 262.114547 13.0938238"></polygon>
                    <polygon id="Fill-39" points="274.596288 43.8293952 283.986776 43.8293952 283.986776 15.2529667 274.596288 15.2529667"></polygon>
                    <polygon id="Fill-40" points="287.078029 43.8293952 296.470529 43.8293952 296.470529 11.0331571 287.078029 11.0331571"></polygon>
                    <polygon id="Fill-41" points="299.541657 43.8293952 308.966358 43.8293952 308.966358 0.000157142857 299.541657 0.000157142857"></polygon>
                    <polygon id="Fill-42" points="312.039499 43.8293952 321.429986 43.8293952 321.429986 8.26849048 312.039499 8.26849048"></polygon>
                    <polygon id="Fill-43" points="324.52124 43.8293952 333.91374 43.8293952 333.91374 14.883681 324.52124 14.883681"></polygon>
                    <polygon id="Fill-44" points="337.002981 43.8293952 346.395481 43.8293952 346.395481 19.0264905 337.002981 19.0264905"></polygon>
                    <polygon id="Fill-45" points="349.484721 43.8293952 358.877221 43.8293952 358.877221 12.6333952 349.484721 12.6333952"></polygon>
                    <polygon id="Fill-46" points="361.966462 43.8293952 371.35695 43.8293952 371.35695 8.35282381 361.966462 8.35282381"></polygon>
                    <polygon id="Fill-47" points="374.448203 43.8293952 383.840703 43.8293952 383.840703 10.0887286 374.448203 10.0887286"></polygon>
                    <polygon id="Fill-48" points="386.929944 43.8293952 396.322444 43.8293952 396.322444 22.9948714 386.929944 22.9948714"></polygon>
                    <polygon id="Fill-49" points="399.411685 43.8293952 408.804185 43.8293952 408.804185 27.3948714 399.411685 27.3948714"></polygon>
                    <polygon id="Fill-50" points="411.893426 43.8293952 421.285926 43.8293952 421.285926 18.9494905 411.893426 18.9494905"></polygon>
                    <polygon id="Fill-51" points="424.373155 43.8293952 433.765655 43.8293952 433.765655 15.0355857 424.373155 15.0355857"></polygon>
                    <polygon id="Fill-52" points="436.856908 43.8293952 446.249408 43.8293952 446.249408 25.916681 436.856908 25.916681"></polygon>
                    <polygon id="Fill-53" points="449.336636 43.8293952 458.729136 43.8293952 458.729136 10.1306333 449.336636 10.1306333"></polygon>
                    <polygon id="Fill-54" points="461.82039 43.8293952 471.21289 43.8293952 471.21289 14.7579667 461.82039 14.7579667"></polygon>
                    <polygon id="Fill-55" points="474.300118 43.8293952 483.692618 43.8293952 483.692618 19.3847762 474.300118 19.3847762"></polygon>
                    <polygon id="Fill-56" points="486.783872 43.8293952 496.176372 43.8293952 496.176372 24.0121095 486.783872 24.0121095"></polygon>
                    <polygon id="Fill-57" points="499.265613 43.8293952 508.6561 43.8293952 508.6561 28.638919 499.265613 28.638919"></polygon>
                    <polygon id="Fill-58" points="511.747354 43.8293952 521.139854 43.8293952 521.139854 33.2662524 511.747354 33.2662524"></polygon>
                    <polygon id="Fill-59" points="524.229095 43.8293952 533.621595 43.8293952 533.621595 37.8925381 524.229095 37.8925381"></polygon>
                    <polygon id="Fill-60" points="536.710836 43.8293952 546.103336 43.8293952 546.103336 36.3797762 536.710836 36.3797762"></polygon>
                    <polygon id="Fill-61" points="549.190564 43.8293952 558.581052 43.8293952 558.581052 30.3103952 549.190564 30.3103952"></polygon>
                    <polygon id="Fill-62" points="561.672305 43.8293952 571.064805 43.8293952 571.064805 27.5818714 561.672305 27.5818714"></polygon>
                    <polygon id="Fill-63" points="574.154046 43.8293952 583.546546 43.8293952 583.546546 31.839919 574.154046 31.839919"></polygon>
                    <polygon id="Fill-64" points="586.635787 43.8293952 596.028287 43.8293952 596.028287 30.3266333 586.635787 30.3266333"></polygon>
                    <polygon id="Fill-65" points="599.117528 43.8293952 608.510028 43.8293952 608.510028 28.8133476 599.117528 28.8133476"></polygon>
                    <polygon id="Fill-66" points="611.599269 43.8293952 620.991769 43.8293952 620.991769 33.2934905 611.599269 33.2934905"></polygon>
                    <polygon id="Fill-67" points="624.08101 43.8293952 633.47351 43.8293952 633.47351 32.3055857 624.08101 32.3055857"></polygon>
                    <polygon id="Fill-68" points="636.562751 43.8293952 645.953238 43.8293952 645.953238 38.0004429 636.562751 38.0004429"></polygon>
                    <polygon id="Fill-69" points="649.044492 43.8293952 658.436992 43.8293952 658.436992 35.7978238 649.044492 35.7978238"></polygon>
                    <polygon id="Fill-70" points="661.52422 43.8293952 670.91672 43.8293952 670.91672 40.5812524 661.52422 40.5812524"></polygon>
                    <polygon id="Fill-71" points="674.005961 43.8293952 683.398461 43.8293952 683.398461 39.2900619 674.005961 39.2900619"></polygon>
                    <polygon id="Fill-72" points="1073.41765 43.8293952 1082.81015 43.8293952 1082.81015 16.0674905 1073.41765 16.0674905"></polygon>
                    <polygon id="Fill-73" points="1060.91981 43.8293952 1070.34451 43.8293952 1070.34451 0.000157142857 1060.91981 0.000157142857"></polygon>
                    <polygon id="Fill-74" points="1048.45618 43.8293952 1057.84666 43.8293952 1057.84666 8.26849048 1048.45618 8.26849048"></polygon>
                    <polygon id="Fill-75" points="1035.97242 43.8293952 1045.36492 43.8293952 1045.36492 14.883681 1035.97242 14.883681"></polygon>
                    <polygon id="Fill-76" points="1023.49269 43.8293952 1032.88519 43.8293952 1032.88519 19.0264905 1023.49269 19.0264905"></polygon>
                    <polygon id="Fill-77" points="1011.01095 43.8293952 1020.40345 43.8293952 1020.40345 12.6333952 1011.01095 12.6333952"></polygon>
                    <polygon id="Fill-78" points="998.529213 43.8293952 1007.92171 43.8293952 1007.92171 8.35282381 998.529213 8.35282381"></polygon>
                    <polygon id="Fill-79" points="986.047472 43.8293952 995.439972 43.8293952 995.439972 10.0887286 986.047472 10.0887286"></polygon>
                    <polygon id="Fill-80" points="973.565731 43.8293952 982.958231 43.8293952 982.958231 22.9948714 973.565731 22.9948714"></polygon>
                    <polygon id="Fill-81" points="961.08399 43.8293952 970.474478 43.8293952 970.474478 27.3948714 961.08399 27.3948714"></polygon>
                    <polygon id="Fill-82" points="948.602249 43.8293952 957.994749 43.8293952 957.994749 18.9494905 948.602249 18.9494905"></polygon>
                    <polygon id="Fill-83" points="936.120508 43.8293952 945.513008 43.8293952 945.513008 15.0355857 936.120508 15.0355857"></polygon>
                    <polygon id="Fill-84" points="923.638767 43.8293952 933.031267 43.8293952 933.031267 25.9172048 923.638767 25.9172048"></polygon>
                    <polygon id="Fill-85" points="911.157026 43.8293952 920.549526 43.8293952 920.549526 10.1306333 911.157026 10.1306333"></polygon>
                    <polygon id="Fill-86" points="898.675286 43.8293952 908.067786 43.8293952 908.067786 14.7579667 898.675286 14.7579667"></polygon>
                    <polygon id="Fill-87" points="886.193545 43.8293952 895.586045 43.8293952 895.586045 19.3847762 886.193545 19.3847762"></polygon>
                    <polygon id="Fill-88" points="873.713816 43.8293952 883.104304 43.8293952 883.104304 24.0121095 873.713816 24.0121095"></polygon>
                    <polygon id="Fill-89" points="861.232075 43.8293952 870.622563 43.8293952 870.622563 28.638919 861.232075 28.638919"></polygon>
                    <polygon id="Fill-90" points="848.748322 43.8293952 858.140822 43.8293952 858.140822 33.2662524 848.748322 33.2662524"></polygon>
                    <polygon id="Fill-91" points="836.266581 43.8293952 845.659081 43.8293952 845.659081 37.8925381 836.266581 37.8925381"></polygon>
                    <polygon id="Fill-92" points="823.78484 43.8293952 833.175327 43.8293952 833.175327 36.3797762 823.78484 36.3797762"></polygon>
                    <polygon id="Fill-93" points="811.305111 43.8293952 820.695599 43.8293952 820.695599 30.3103952 811.305111 30.3103952"></polygon>
                    <polygon id="Fill-94" points="798.821358 43.8293952 808.213858 43.8293952 808.213858 27.5818714 798.821358 27.5818714"></polygon>
                    <polygon id="Fill-95" points="786.339617 43.8293952 795.732117 43.8293952 795.732117 31.839919 786.339617 31.839919"></polygon>
                    <polygon id="Fill-96" points="773.859889 43.8293952 783.252389 43.8293952 783.252389 30.3266333 773.859889 30.3266333"></polygon>
                    <polygon id="Fill-97" points="761.38016 43.8293952 770.770648 43.8293952 770.770648 28.8133476 761.38016 28.8133476"></polygon>
                    <polygon id="Fill-98" points="748.896407 43.8293952 758.288907 43.8293952 758.288907 33.2934905 748.896407 33.2934905"></polygon>
                    <polygon id="Fill-99" points="736.414666 43.8293952 745.807166 43.8293952 745.807166 32.3055857 736.414666 32.3055857"></polygon>
                    <polygon id="Fill-100" points="723.932925 43.8293952 733.323412 43.8293952 733.323412 38.0004429 723.932925 38.0004429"></polygon>
                    <polygon id="Fill-101" points="711.451184 43.8293952 720.843684 43.8293952 720.843684 35.7978238 711.451184 35.7978238"></polygon>
                    <polygon id="Fill-102" points="1285.60322 43.8293952 1294.99572 43.8293952 1294.99572 24.0121095 1285.60322 24.0121095"></polygon>
                    <polygon id="Fill-103" points="1298.08697 43.8293952 1307.47947 43.8293952 1307.47947 28.638919 1298.08697 28.638919"></polygon>
                    <polygon id="Fill-104" points="1310.56871 43.8293952 1319.96121 43.8293952 1319.96121 33.2662524 1310.56871 33.2662524"></polygon>
                    <polygon id="Fill-105" points="1323.05045 43.8293952 1332.44295 43.8293952 1332.44295 37.8925381 1323.05045 37.8925381"></polygon>
                    <polygon id="Fill-106" points="1335.53018 43.8293952 1344.92268 43.8293952 1344.92268 36.3797762 1335.53018 36.3797762"></polygon>
                    <polygon id="Fill-107" points="1348.01393 43.8293952 1357.40643 43.8293952 1357.40643 30.3103952 1348.01393 30.3103952"></polygon>
                    <polygon id="Fill-108" points="1360.49568 43.8293952 1369.88818 43.8293952 1369.88818 27.5818714 1360.49568 27.5818714"></polygon>
                    <polygon id="Fill-109" points="1372.97742 43.8293952 1382.36992 43.8293952 1382.36992 30.3266333 1372.97742 30.3266333"></polygon>
                    <polygon id="Fill-110" points="1385.45916 43.8293952 1394.84964 43.8293952 1394.84964 28.8133476 1385.45916 28.8133476"></polygon>
                    <polygon id="Fill-111" points="1397.93889 43.8293952 1407.33139 43.8293952 1407.33139 33.2934905 1397.93889 33.2934905"></polygon>
                    <polygon id="Fill-112" points="1410.42063 43.8293952 1419.81313 43.8293952 1419.81313 32.3055857 1410.42063 32.3055857"></polygon>
                    <polygon id="Fill-113" points="1422.90237 43.8293952 1432.29487 43.8293952 1432.29487 38.0004429 1422.90237 38.0004429"></polygon>
                    <polygon id="Fill-114" points="1435.38612 43.8293952 1444.77661 43.8293952 1444.77661 35.7978238 1435.38612 35.7978238"></polygon>
                    <polygon id="Fill-115" points="698.969443 43.8293952 708.361943 43.8293952 708.361943 40.5812524 698.969443 40.5812524"></polygon>
                    <polygon id="Fill-116" points="686.487702 43.8293952 695.880202 43.8293952 695.880202 39.2900619 686.487702 39.2900619"></polygon>
                </g>
            </g>
        </g>
    </g>
</svg>