<?xml version="1.0" encoding="UTF-8" standalone="no"?>
<svg width="119px" height="72px" viewBox="0 0 119 72" version="1.1" xmlns="http://www.w3.org/2000/svg" xmlns:xlink="http://www.w3.org/1999/xlink">
    <!-- Generator: sketchtool 3.7 (28169) - http://www.bohemiancoding.com/sketch -->
    <title>0FBD1E3D-51BC-460D-B9A6-B5A5E2E40438</title>
    <desc>Created with sketchtool.</desc>
    <defs></defs>
    <g id="Desktop" stroke="none" stroke-width="1" fill="none" fill-rule="evenodd">
        <g id="Home" transform="translate(-247.000000, -1438.000000)">
            <g id="search-audio" transform="translate(247.000000, 1438.000000)">
                <path d="M36.5,62 C34,62 33.4,59.8 32.1,31.7 C31.7,23.2 31.2,12.3 30.4,6.5 C29.9,10.5 29.5,16.9 29.2,22 C28.1,41.2 27.5,46 24.5,46 C21.3,46 20.6,41.4 19.9,36.6 C19.6,34.4 19.1,30.8 18.4,30 C17.7,30.2 17.1,32.2 16.7,33.6 C16,36.1 15.2,39 12.5,39 C10.3,39 9.3,37.8 8.7,37.1 C8.1,36.4 7.8,36 6.5,36 L1.5,36 C0.7,36 0,35.3 0,34.5 C0,33.7 0.7,33 1.5,33 L6.5,33 C9.2,33 10.2,34.3 10.9,35.1 C11.4,35.7 11.6,36 12.5,36 C13,35.8 13.6,33.8 13.8,32.8 C14.6,30.2 15.5,27 18.5,27 C21.6,27 22.2,31.2 22.9,36.1 C23.2,37.9 23.6,41.1 24.2,42.4 C25.2,39.2 25.8,28.8 26.2,21.7 C27.2,4.1 27.7,-3.55271368e-15 30.4,-3.55271368e-15 C33,-3.55271368e-15 33.6,2.5 35,31.5 C35.4,39.3 35.9,49.2 36.5,54.9 C37.1,50.3 37.5,43.1 37.8,37.4 C39.2,15.3 39.8,12 42.5,12 C45.3,12 45.8,16.5 46.7,29.5 C47.1,34.9 47.7,42.7 48.6,45.4 C49.2,43.7 49.6,39.7 49.9,37.1 C50.6,30.3 51.1,25 54.5,25 C57.8,25 58.3,29.1 58.8,33 C59.1,35.1 59.5,39 60.5,39 C61.5,39 61.9,37 62.3,34.4 C62.8,31.5 63.4,28 66.5,28 C69.6,28 70.5,31 71.1,33.2 C71.5,34.4 71.9,36 72.5,36 C73.4,36 73.8,35.4 74.6,34 C75.3,32.7 76.3,31 78.5,31 C80.3,31 81.2,31.7 81.9,32.2 C82.6,32.7 83.1,33 84.5,33 L90.5,33 C91.3,33 92,33.7 92,34.5 C92,35.3 91.3,36 90.5,36 L84.5,36 C82.1,36 81,35.2 80.2,34.6 C79.6,34.2 79.3,34 78.5,34 C78.1,34 77.8,34.5 77.2,35.5 C76.4,36.9 75.2,39 72.5,39 C69.7,39 68.8,36.1 68.2,34.1 C67.6,32 67.2,31 66.5,31 C65.9,31 65.5,33.6 65.3,34.9 C64.8,37.9 64.1,42 60.5,42 C56.9,42 56.3,37.4 55.8,33.4 C55.6,31.7 55.2,28.7 54.6,28.1 C53.7,29.2 53.2,34.3 52.9,37.4 C52.2,44.1 51.7,49 48.5,49 C45.4,49 44.8,44 43.7,29.7 C43.4,25.7 43,20.6 42.5,17.5 C41.8,22 41.3,30.8 40.8,37.6 C39.6,58.8 39,62 36.5,62 L36.5,62 Z" id="Shape" fill="#D3DFDE"></path>
                <path d="M79.7738998,57.5744689 C73.1527391,57.5744689 66.9283667,54.996646 62.2469153,50.3138937 C52.5841447,40.6491717 52.5841447,24.9233459 62.2482163,15.2605753 C66.9290172,10.5778229 73.1533896,8 79.7745503,8 C86.3970119,8 92.6207338,10.5778229 97.3008842,15.2605753 C101.982336,19.9420266 104.561459,26.166399 104.561459,32.7875597 C104.561459,39.4074194 101.982336,45.6330928 97.3008842,50.3132432 C92.6200833,54.9959955 86.395711,57.5744689 79.7738998,57.5744689 L79.7738998,57.5744689 L79.7738998,57.5744689 Z M79.7738998,14.4572416 C74.8790934,14.4572416 70.2743978,16.3644273 66.8119321,19.8242911 C63.3494664,23.2874073 61.4422807,27.889501 61.4422807,32.7869092 C61.4422807,37.6830166 63.3494664,42.2870617 66.8112816,45.7501779 C70.2730969,49.2113426 74.877142,51.1178778 79.7732493,51.1178778 C84.6706576,51.1178778 89.2727513,49.2113426 92.735217,45.7501779 C99.88261,38.6021344 99.88261,26.9723346 92.735217,19.8249416 C89.2740522,16.3631263 84.6706576,14.4572416 79.7738998,14.4572416 Z M103.623478,51.4684826 C103.623478,51.4684826 103.152536,50.9962394 102.576217,50.4205712 C101.999898,49.8449029 100.940929,49.9593861 100.224759,50.6762069 L97.7965444,53.1037707 C97.0784226,53.8218925 96.9639394,54.8795609 97.5396077,55.4558797 C98.1165769,56.0328489 98.5875191,56.5044415 98.5875191,56.5044415 L103.623478,51.4684826 Z M100.704157,58.6210794 C100.704157,58.6210794 101.290883,59.2071552 102.008355,59.9246265 L113.42545,71.3423722 C114.143572,72.0598435 115.316374,72.0598435 116.033845,71.3423722 L118.461409,68.9154589 C119.17953,68.1973371 119.17953,67.024535 118.461409,66.3064132 L107.044964,54.8886675 C106.326842,54.1705458 105.740116,53.5851204 105.740116,53.5851204 L100.704157,58.6210794 Z" id="search" fill="#BDBDBD"></path>
            </g>
        </g>
    </g>
</svg>