<?xml version="1.0" encoding="UTF-8" standalone="no"?>
<svg width="47px" height="46px" viewBox="0 0 47 46" version="1.1" xmlns="http://www.w3.org/2000/svg" xmlns:xlink="http://www.w3.org/1999/xlink">
    <!-- Generator: sketchtool 3.7 (28169) - http://www.bohemiancoding.com/sketch -->
    <title>65E84B69-B79F-4D48-977E-C440A0A8130B</title>
    <desc>Created with sketchtool.</desc>
    <defs></defs>
    <g id="Desktop" stroke="none" stroke-width="1" fill="none" fill-rule="evenodd">
        <g id="Home" transform="translate(-889.000000, -1444.000000)" fill="#BDBDBD">
            <g id="extract-info" transform="translate(836.000000, 1444.000000)">
                <path d="M59.6007329,27.7281906 L53.6229302,27.7281906 L53.6229302,43.0274637 C53.6229302,44.6694621 54.9606703,46 56.6115569,46 L71.9936447,46 L71.9936447,40.0543809 L59.6007329,40.0543809 L59.6007329,27.7281906 Z M93.8941251,40.0543809 L81.5006639,40.0543809 L81.5006639,46 L96.8827518,46 C98.5336384,46 99.8713784,44.6689157 99.8713784,43.0274637 L99.8713784,27.7281906 L93.8941251,27.7281906 L93.8941251,40.0543809 Z M96.8827518,0 L96.877258,0 L81.5006639,0 L81.5006639,5.94561912 L93.8941251,5.94561912 L93.8941251,18.2718094 L99.8719278,18.2718094 L99.8719278,2.97308277 C99.8719278,1.33108429 98.5336384,0 96.8827518,0 Z M53.6229302,2.97308277 L53.6229302,2.97854699 L53.6229302,18.2723558 L59.6012823,18.2723558 L59.6012823,5.94561912 L71.9941941,5.94561912 L71.9941941,0 L56.6121063,0 C54.9612197,0 53.6229302,1.33108429 53.6229302,2.97308277 Z" id="tgt"></path>
            </g>
        </g>
    </g>
</svg>